<?xml version="1.0" standalone="no"?><!-- Generator: Gravit.io --><svg xmlns="http://www.w3.org/2000/svg" xmlns:xlink="http://www.w3.org/1999/xlink" style="isolation:isolate" viewBox="0 0 92 11.967" width="92px" height="11.967px"><defs><clipPath id="_clipPath_nDQQR4XuW27AqRdXAk2WG665y8jnzqaX"><rect width="92" height="11.967"/></clipPath></defs><g clip-path="url(#_clipPath_nDQQR4XuW27AqRdXAk2WG665y8jnzqaX)"><path d=" M 55.05 0 L 55.05 0 L 63.029 0 L 63.029 0 Q 63.86 0 64.442 0.582 L 64.442 0.582 L 64.442 0.582 Q 65.023 1.164 65.023 1.995 L 65.023 1.995 L 65.023 11.967 L 63.677 11.967 L 63.677 7.596 L 54.402 7.596 L 54.402 11.967 L 53.056 11.967 L 53.056 1.995 L 53.056 1.995 Q 53.056 1.164 53.638 0.582 L 53.638 0.582 L 53.638 0.582 Q 54.219 0 55.05 0 Z  M 54.402 1.995 L 54.402 6.25 L 63.677 6.25 L 63.677 1.995 L 63.677 1.995 Q 63.677 1.729 63.486 1.537 L 63.486 1.537 L 63.486 1.537 Q 63.295 1.346 63.029 1.346 L 63.029 1.346 L 55.05 1.346 L 55.05 1.346 Q 54.784 1.346 54.593 1.537 L 54.593 1.537 L 54.593 1.537 Q 54.402 1.729 54.402 1.995 L 54.402 1.995 Z  M 78.869 2.011 L 78.869 2.011 L 78.869 5.518 L 78.869 5.518 Q 78.869 6.349 78.287 6.931 L 78.287 6.931 L 78.287 6.931 Q 77.706 7.513 76.874 7.513 L 76.874 7.513 L 75.046 7.513 L 78.803 11.967 L 77.024 11.967 L 73.284 7.513 L 68.896 7.513 L 68.896 7.513 Q 68.747 7.513 68.248 7.446 L 68.248 7.446 L 68.248 11.967 L 66.902 11.967 L 66.902 0.017 L 76.874 0.017 L 76.874 0.017 Q 77.706 0.017 78.287 0.598 L 78.287 0.598 L 78.287 0.598 Q 78.869 1.18 78.869 2.011 Z  M 68.896 6.15 L 68.896 6.15 L 76.874 6.15 L 76.874 6.15 Q 77.14 6.15 77.323 5.967 L 77.323 5.967 L 77.323 5.967 Q 77.506 5.784 77.506 5.518 L 77.506 5.518 L 77.506 2.011 L 77.506 2.011 Q 77.506 1.745 77.323 1.554 L 77.323 1.554 L 77.323 1.554 Q 77.14 1.363 76.874 1.363 L 76.874 1.363 L 68.896 1.363 L 68.896 1.363 Q 68.63 1.363 68.439 1.554 L 68.439 1.554 L 68.439 1.554 Q 68.248 1.745 68.248 2.011 L 68.248 2.011 L 68.248 5.518 L 68.248 5.518 Q 68.248 5.784 68.439 5.967 L 68.439 5.967 L 68.439 5.967 Q 68.63 6.15 68.896 6.15 Z  M 80.033 1.346 L 80.033 0 L 92 0 L 92 1.346 L 86.698 1.346 L 86.698 11.967 L 85.351 11.967 L 85.351 1.346 L 80.033 1.346 Z  M 1.995 0 L 1.995 0 L 9.973 0 L 9.973 0 Q 10.804 0 11.386 0.582 L 11.386 0.582 L 11.386 0.582 Q 11.967 1.164 11.967 1.995 L 11.967 1.995 L 11.967 11.967 L 10.621 11.967 L 10.621 7.596 L 1.346 7.596 L 1.346 11.967 L 0 11.967 L 0 1.995 L 0 1.995 Q 0 1.164 0.582 0.582 L 0.582 0.582 L 0.582 0.582 Q 1.164 0 1.995 0 Z  M 1.346 1.995 L 1.346 6.25 L 10.621 6.25 L 10.621 1.995 L 10.621 1.995 Q 10.621 1.729 10.43 1.537 L 10.43 1.537 L 10.43 1.537 Q 10.239 1.346 9.973 1.346 L 9.973 1.346 L 1.995 1.346 L 1.995 1.346 Q 1.729 1.346 1.537 1.537 L 1.537 1.537 L 1.537 1.537 Q 1.346 1.729 1.346 1.995 L 1.346 1.995 Z  M 25.747 1.995 L 25.747 1.995 L 25.747 2.46 L 24.4 2.46 L 24.4 1.995 L 24.4 1.995 Q 24.4 1.729 24.209 1.537 L 24.209 1.537 L 24.209 1.537 Q 24.018 1.346 23.752 1.346 L 23.752 1.346 L 15.774 1.346 L 15.774 1.346 Q 15.508 1.346 15.317 1.537 L 15.317 1.537 L 15.317 1.537 Q 15.126 1.729 15.126 1.995 L 15.126 1.995 L 15.126 4.671 L 15.126 4.671 Q 15.126 4.937 15.317 5.119 L 15.317 5.119 L 15.317 5.119 Q 15.508 5.302 15.774 5.302 L 15.774 5.302 L 23.752 5.302 L 23.752 5.302 Q 24.583 5.302 25.165 5.884 L 25.165 5.884 L 25.165 5.884 Q 25.747 6.466 25.747 7.297 L 25.747 7.297 L 25.747 9.973 L 25.747 9.973 Q 25.747 10.804 25.165 11.386 L 25.165 11.386 L 25.165 11.386 Q 24.583 11.967 23.752 11.967 L 23.752 11.967 L 15.774 11.967 L 15.774 11.967 Q 14.943 11.967 14.361 11.386 L 14.361 11.386 L 14.361 11.386 Q 13.779 10.804 13.779 9.973 L 13.779 9.973 L 13.779 9.507 L 15.126 9.507 L 15.126 9.973 L 15.126 9.973 Q 15.126 10.239 15.317 10.43 L 15.317 10.43 L 15.317 10.43 Q 15.508 10.621 15.774 10.621 L 15.774 10.621 L 23.752 10.621 L 23.752 10.621 Q 24.018 10.621 24.209 10.43 L 24.209 10.43 L 24.209 10.43 Q 24.4 10.239 24.4 9.973 L 24.4 9.973 L 24.4 7.297 L 24.4 7.297 Q 24.4 7.031 24.209 6.848 L 24.209 6.848 L 24.209 6.848 Q 24.018 6.665 23.752 6.665 L 23.752 6.665 L 15.774 6.665 L 15.774 6.665 Q 14.943 6.665 14.361 6.083 L 14.361 6.083 L 14.361 6.083 Q 13.779 5.502 13.779 4.671 L 13.779 4.671 L 13.779 1.995 L 13.779 1.995 Q 13.779 1.164 14.361 0.582 L 14.361 0.582 L 14.361 0.582 Q 14.943 0 15.774 0 L 15.774 0 L 23.752 0 L 23.752 0 Q 24.583 0 25.165 0.582 L 25.165 0.582 L 25.165 0.582 Q 25.747 1.164 25.747 1.995 Z  M 39.459 0 L 39.459 1.346 L 29.52 1.346 L 29.52 1.346 Q 29.254 1.346 29.063 1.537 L 29.063 1.537 L 29.063 1.537 Q 28.872 1.729 28.872 1.995 L 28.872 1.995 L 28.872 9.973 L 28.872 9.973 Q 28.872 10.239 29.063 10.43 L 29.063 10.43 L 29.063 10.43 Q 29.254 10.621 29.52 10.621 L 29.52 10.621 L 39.459 10.621 L 39.459 11.967 L 29.52 11.967 L 29.52 11.967 Q 28.689 11.967 28.107 11.386 L 28.107 11.386 L 28.107 11.386 Q 27.525 10.804 27.525 9.973 L 27.525 9.973 L 27.525 1.995 L 27.525 1.995 Q 27.525 1.164 28.107 0.582 L 28.107 0.582 L 28.107 0.582 Q 28.689 0 29.52 0 L 29.52 0 L 39.459 0 Z  M 42.551 11.967 L 41.205 11.967 L 41.205 0 L 42.551 0 L 42.551 11.967 Z  M 46.208 11.967 L 44.861 11.967 L 44.861 0 L 46.208 0 L 46.208 11.967 Z " fill="rgb(36,42,83)"/></g></svg>