<?xml version="1.0" standalone="no"?><!-- Generator: Gravit.io --><svg xmlns="http://www.w3.org/2000/svg" xmlns:xlink="http://www.w3.org/1999/xlink" style="isolation:isolate" viewBox="0 0 224.226 50.501" width="224.226" height="50.501"><defs><clipPath id="_clipPath_WAkgDjtemeEKTLFASKqz3gXPZL3yGWl0"><rect width="224.226" height="50.501"/></clipPath></defs><g clip-path="url(#_clipPath_WAkgDjtemeEKTLFASKqz3gXPZL3yGWl0)"><path d=" M 163.003 42.34 L 163.003 42.34 Q 162.343 42.34 161.933 41.91 L 161.933 41.91 L 161.933 41.91 Q 161.523 41.48 161.523 40.68 L 161.523 40.68 L 161.523 40.68 Q 161.523 39.5 162.373 38.04 L 162.373 38.04 L 162.373 38.04 Q 163.223 36.58 164.523 35.56 L 164.523 35.56 L 164.523 35.56 Q 165.823 34.54 167.063 34.54 L 167.063 34.54 L 167.063 34.54 Q 167.843 34.54 168.363 34.96 L 168.363 34.96 L 168.363 34.96 Q 168.883 35.38 168.883 36.04 L 168.883 36.04 L 168.883 36.04 Q 168.883 36.5 168.623 36.7 L 168.623 36.7 L 168.623 36.7 Q 168.363 36.9 167.903 36.9 L 167.903 36.9 L 167.903 36.9 Q 168.003 36.54 168.003 36.2 L 168.003 36.2 L 168.003 36.2 Q 168.003 35.7 167.763 35.39 L 167.763 35.39 L 167.763 35.39 Q 167.523 35.08 167.023 35.08 L 167.023 35.08 L 167.023 35.08 Q 166.143 35.08 165.173 36.06 L 165.173 36.06 L 165.173 36.06 Q 164.203 37.04 163.553 38.4 L 163.553 38.4 L 163.553 38.4 Q 162.903 39.76 162.903 40.74 L 162.903 40.74 L 162.903 40.74 Q 162.903 41.52 163.443 41.52 L 163.443 41.52 L 163.443 41.52 Q 164.243 41.52 165.323 40.25 L 165.323 40.25 L 165.323 40.25 Q 166.403 38.98 167.643 37.16 L 167.643 37.16 L 167.643 37.16 Q 167.903 37.2 168.173 37.33 L 168.173 37.33 L 168.173 37.33 Q 168.443 37.46 168.443 37.66 L 168.443 37.66 L 168.443 37.66 Q 168.443 37.82 168.253 38.17 L 168.253 38.17 L 168.253 38.17 Q 168.063 38.52 168.023 38.58 L 168.023 38.58 L 168.023 38.58 Q 167.683 39.16 167.483 39.61 L 167.483 39.61 L 167.483 39.61 Q 167.283 40.06 167.283 40.44 L 167.283 40.44 L 167.283 40.44 Q 167.283 40.78 167.453 41.05 L 167.453 41.05 L 167.453 41.05 Q 167.623 41.32 167.963 41.32 L 167.963 41.32 L 167.963 41.32 Q 168.543 41.32 169.423 40.49 L 169.423 40.49 L 169.423 40.49 Q 170.303 39.66 171.163 38.16 L 171.163 38.16 L 171.363 38.36 L 171.363 38.36 Q 170.943 39.42 170.283 40.25 L 170.283 40.25 L 170.283 40.25 Q 169.623 41.08 168.863 41.54 L 168.863 41.54 L 168.863 41.54 Q 168.103 42 167.403 42 L 167.403 42 L 167.403 42 Q 166.703 42 166.333 41.59 L 166.333 41.59 L 166.333 41.59 Q 165.963 41.18 165.963 40.6 L 165.963 40.6 L 165.963 40.6 Q 165.963 40.34 166.023 40.02 L 166.023 40.02 L 166.023 40.02 Q 165.123 41.22 164.413 41.78 L 164.413 41.78 L 164.413 41.78 Q 163.703 42.34 163.003 42.34 L 163.003 42.34 Z  M 172.903 42.52 L 172.903 42.52 Q 171.903 42.52 171.283 41.86 L 171.283 41.86 L 171.283 41.86 Q 170.663 41.2 170.663 39.96 L 170.663 39.96 L 170.663 39.96 Q 170.663 38.66 171.323 37.42 L 171.323 37.42 L 171.323 37.42 Q 171.983 36.18 173.013 35.41 L 173.013 35.41 L 173.013 35.41 Q 174.043 34.64 175.043 34.64 L 175.043 34.64 L 175.043 34.64 Q 175.803 34.64 176.133 35.07 L 176.133 35.07 L 176.133 35.07 Q 176.463 35.5 176.463 36.12 L 176.463 36.12 L 176.463 36.12 Q 176.463 36.72 176.193 37.15 L 176.193 37.15 L 176.193 37.15 Q 175.923 37.58 175.463 37.58 L 175.463 37.58 L 175.463 37.58 Q 175.123 37.58 174.883 37.28 L 174.883 37.28 L 174.883 37.28 Q 175.183 37.14 175.403 36.65 L 175.403 36.65 L 175.403 36.65 Q 175.623 36.16 175.623 35.7 L 175.623 35.7 L 175.623 35.7 Q 175.623 35.44 175.523 35.32 L 175.523 35.32 L 175.523 35.32 Q 175.423 35.2 175.183 35.2 L 175.183 35.2 L 175.183 35.2 Q 174.503 35.2 173.733 36.01 L 173.733 36.01 L 173.733 36.01 Q 172.963 36.82 172.433 37.98 L 172.433 37.98 L 172.433 37.98 Q 171.903 39.14 171.903 40.1 L 171.903 40.1 L 171.903 40.1 Q 171.903 40.82 172.243 41.29 L 172.243 41.29 L 172.243 41.29 Q 172.583 41.76 173.363 41.76 L 173.363 41.76 L 173.363 41.76 Q 174.583 41.76 175.773 40.76 L 175.773 40.76 L 175.773 40.76 Q 176.963 39.76 177.603 38.14 L 177.603 38.14 L 177.863 38.34 L 177.863 38.34 Q 177.403 39.54 176.603 40.49 L 176.603 40.49 L 176.603 40.49 Q 175.803 41.44 174.833 41.98 L 174.833 41.98 L 174.833 41.98 Q 173.863 42.52 172.903 42.52 L 172.903 42.52 Z  M 178.923 42.32 L 178.923 42.32 Q 177.143 42.32 177.143 40.34 L 177.143 40.34 L 177.143 40.34 Q 177.143 39.48 177.453 38.21 L 177.453 38.21 L 177.453 38.21 Q 177.763 36.94 178.303 35.52 L 178.303 35.52 L 178.303 35.52 Q 177.823 35.44 177.583 35.36 L 177.583 35.36 L 177.583 35 L 177.583 35 Q 178.303 35.08 178.463 35.08 L 178.463 35.08 L 178.463 35.08 Q 179.343 32.8 180.353 31.13 L 180.353 31.13 L 180.353 31.13 Q 181.363 29.46 181.943 29.46 L 181.943 29.46 L 181.943 29.46 Q 182.103 29.46 182.233 29.58 L 182.233 29.58 L 182.233 29.58 Q 182.363 29.7 182.363 29.9 L 182.363 29.9 L 182.363 29.9 Q 182.363 30.16 182.113 30.66 L 182.113 30.66 L 182.113 30.66 Q 181.863 31.16 181.263 32.2 L 181.263 32.2 L 181.263 32.2 Q 181.163 32.4 180.643 33.31 L 180.643 33.31 L 180.643 33.31 Q 180.123 34.22 179.703 35.14 L 179.703 35.14 L 180.443 35.14 L 180.443 35.14 Q 182.103 35.14 183.303 35.02 L 183.303 35.02 L 183.303 35.38 L 183.303 35.38 Q 181.123 35.62 179.783 35.62 L 179.783 35.62 L 179.483 35.62 L 179.483 35.62 Q 178.383 38.14 178.383 39.98 L 178.383 39.98 L 178.383 39.98 Q 178.383 40.84 178.643 41.21 L 178.643 41.21 L 178.643 41.21 Q 178.903 41.58 179.503 41.58 L 179.503 41.58 L 179.503 41.58 Q 180.523 41.58 181.523 40.67 L 181.523 40.67 L 181.523 40.67 Q 182.523 39.76 183.303 38.16 L 183.303 38.16 L 183.563 38.36 L 183.563 38.36 Q 182.823 40.1 181.563 41.21 L 181.563 41.21 L 181.563 41.21 Q 180.303 42.32 178.923 42.32 L 178.923 42.32 Z  M 186.763 32.76 L 186.763 32.76 Q 186.403 32.76 186.173 32.59 L 186.173 32.59 L 186.173 32.59 Q 185.943 32.42 185.943 32.1 L 185.943 32.1 L 185.943 32.1 Q 185.943 31.7 186.423 31.38 L 186.423 31.38 L 186.423 31.38 Q 186.903 31.06 187.403 31.06 L 187.403 31.06 L 187.403 31.06 Q 188.063 31.06 188.063 31.68 L 188.063 31.68 L 188.063 31.68 Q 188.063 32.06 187.653 32.41 L 187.653 32.41 L 187.653 32.41 Q 187.243 32.76 186.763 32.76 L 186.763 32.76 Z  M 184.363 41.92 L 184.363 41.92 Q 183.623 41.92 183.223 41.45 L 183.223 41.45 L 183.223 41.45 Q 182.823 40.98 182.823 40.24 L 182.823 40.24 L 182.823 40.24 Q 182.823 39.46 183.273 38.08 L 183.273 38.08 L 183.273 38.08 Q 183.723 36.7 184.393 35.66 L 184.393 35.66 L 184.393 35.66 Q 185.063 34.62 185.703 34.62 L 185.703 34.62 L 185.703 34.62 Q 185.883 34.62 186.013 34.74 L 186.013 34.74 L 186.013 34.74 Q 186.143 34.86 186.143 35.06 L 186.143 35.06 L 186.143 35.06 Q 186.143 35.34 185.503 36.4 L 185.503 36.4 L 185.503 36.4 Q 184.843 37.5 184.453 38.37 L 184.453 38.37 L 184.453 38.37 Q 184.063 39.24 184.063 40.02 L 184.063 40.02 L 184.063 40.02 Q 184.063 40.72 184.293 40.97 L 184.293 40.97 L 184.293 40.97 Q 184.523 41.22 185.043 41.22 L 185.043 41.22 L 185.043 41.22 Q 186.603 41.22 188.123 38.16 L 188.123 38.16 L 188.303 38.36 L 188.303 38.36 Q 187.743 40.04 186.653 40.98 L 186.653 40.98 L 186.653 40.98 Q 185.563 41.92 184.363 41.92 L 184.363 41.92 Z  M 189.043 42.18 L 189.043 42.18 Q 188.443 42.18 188.193 41.61 L 188.193 41.61 L 188.193 41.61 Q 187.943 41.04 187.943 39.98 L 187.943 39.98 L 187.943 39.98 Q 187.943 39.6 188.063 37.36 L 188.063 37.36 L 188.063 37.36 Q 188.103 36.76 188.203 36.59 L 188.203 36.59 L 188.203 36.59 Q 188.303 36.42 188.703 36.42 L 188.703 36.42 L 188.703 36.42 Q 189.043 36.42 189.133 36.55 L 189.133 36.55 L 189.133 36.55 Q 189.223 36.68 189.223 37.06 L 189.223 37.06 L 189.223 37.06 Q 189.223 37.46 189.143 38.54 L 189.143 38.54 L 189.143 38.54 Q 189.043 39.5 189.043 40.28 L 189.043 40.28 L 189.043 40.28 Q 189.043 40.88 189.143 41.14 L 189.143 41.14 L 189.143 41.14 Q 189.243 41.4 189.503 41.4 L 189.503 41.4 L 189.503 41.4 Q 190.163 41.4 191.103 40.05 L 191.103 40.05 L 191.103 40.05 Q 192.043 38.7 192.803 37.02 L 192.803 37.02 L 192.803 37.02 Q 192.843 35.76 193.073 35.26 L 193.073 35.26 L 193.073 35.26 Q 193.303 34.76 193.723 34.76 L 193.723 34.76 L 193.723 34.76 Q 194.063 34.76 194.253 35.01 L 194.253 35.01 L 194.253 35.01 Q 194.443 35.26 194.443 35.52 L 194.443 35.52 L 194.443 35.52 Q 194.443 35.72 194.243 36.08 L 194.243 36.08 L 194.243 36.08 Q 194.003 36.54 193.873 36.99 L 193.873 36.99 L 193.873 36.99 Q 193.743 37.44 193.743 38.2 L 193.743 38.2 L 193.743 38.2 Q 193.743 38.86 193.933 39.29 L 193.933 39.29 L 193.933 39.29 Q 194.123 39.72 194.683 39.72 L 194.683 39.72 L 194.683 39.72 Q 195.123 39.72 195.503 39.38 L 195.503 39.38 L 195.503 39.38 Q 195.883 39.04 196.263 38.24 L 196.263 38.24 L 196.523 38.44 L 196.523 38.44 Q 195.803 40.12 194.543 40.12 L 194.543 40.12 L 194.543 40.12 Q 193.863 40.12 193.433 39.63 L 193.433 39.63 L 193.433 39.63 Q 193.003 39.14 192.863 38.18 L 192.863 38.18 L 192.863 38.18 Q 192.043 39.82 190.993 41 L 190.993 41 L 190.993 41 Q 189.943 42.18 189.043 42.18 L 189.043 42.18 Z  M 199.723 32.76 L 199.723 32.76 Q 199.363 32.76 199.133 32.59 L 199.133 32.59 L 199.133 32.59 Q 198.903 32.42 198.903 32.1 L 198.903 32.1 L 198.903 32.1 Q 198.903 31.7 199.383 31.38 L 199.383 31.38 L 199.383 31.38 Q 199.863 31.06 200.363 31.06 L 200.363 31.06 L 200.363 31.06 Q 201.023 31.06 201.023 31.68 L 201.023 31.68 L 201.023 31.68 Q 201.023 32.06 200.613 32.41 L 200.613 32.41 L 200.613 32.41 Q 200.203 32.76 199.723 32.76 L 199.723 32.76 Z  M 197.323 41.92 L 197.323 41.92 Q 196.583 41.92 196.183 41.45 L 196.183 41.45 L 196.183 41.45 Q 195.783 40.98 195.783 40.24 L 195.783 40.24 L 195.783 40.24 Q 195.783 39.46 196.233 38.08 L 196.233 38.08 L 196.233 38.08 Q 196.683 36.7 197.353 35.66 L 197.353 35.66 L 197.353 35.66 Q 198.023 34.62 198.663 34.62 L 198.663 34.62 L 198.663 34.62 Q 198.843 34.62 198.973 34.74 L 198.973 34.74 L 198.973 34.74 Q 199.103 34.86 199.103 35.06 L 199.103 35.06 L 199.103 35.06 Q 199.103 35.34 198.463 36.4 L 198.463 36.4 L 198.463 36.4 Q 197.803 37.5 197.413 38.37 L 197.413 38.37 L 197.413 38.37 Q 197.023 39.24 197.023 40.02 L 197.023 40.02 L 197.023 40.02 Q 197.023 40.72 197.253 40.97 L 197.253 40.97 L 197.253 40.97 Q 197.483 41.22 198.003 41.22 L 198.003 41.22 L 198.003 41.22 Q 199.563 41.22 201.083 38.16 L 201.083 38.16 L 201.263 38.36 L 201.263 38.36 Q 200.703 40.04 199.613 40.98 L 199.613 40.98 L 199.613 40.98 Q 198.523 41.92 197.323 41.92 L 197.323 41.92 Z  M 202.403 42.32 L 202.403 42.32 Q 200.623 42.32 200.623 40.34 L 200.623 40.34 L 200.623 40.34 Q 200.623 39.48 200.933 38.21 L 200.933 38.21 L 200.933 38.21 Q 201.243 36.94 201.783 35.52 L 201.783 35.52 L 201.783 35.52 Q 201.303 35.44 201.063 35.36 L 201.063 35.36 L 201.063 35 L 201.063 35 Q 201.783 35.08 201.943 35.08 L 201.943 35.08 L 201.943 35.08 Q 202.823 32.8 203.833 31.13 L 203.833 31.13 L 203.833 31.13 Q 204.843 29.46 205.423 29.46 L 205.423 29.46 L 205.423 29.46 Q 205.583 29.46 205.713 29.58 L 205.713 29.58 L 205.713 29.58 Q 205.843 29.7 205.843 29.9 L 205.843 29.9 L 205.843 29.9 Q 205.843 30.16 205.593 30.66 L 205.593 30.66 L 205.593 30.66 Q 205.343 31.16 204.743 32.2 L 204.743 32.2 L 204.743 32.2 Q 204.643 32.4 204.123 33.31 L 204.123 33.31 L 204.123 33.31 Q 203.603 34.22 203.183 35.14 L 203.183 35.14 L 203.923 35.14 L 203.923 35.14 Q 205.583 35.14 206.783 35.02 L 206.783 35.02 L 206.783 35.38 L 206.783 35.38 Q 204.603 35.62 203.263 35.62 L 203.263 35.62 L 202.963 35.62 L 202.963 35.62 Q 201.863 38.14 201.863 39.98 L 201.863 39.98 L 201.863 39.98 Q 201.863 40.84 202.123 41.21 L 202.123 41.21 L 202.123 41.21 Q 202.383 41.58 202.983 41.58 L 202.983 41.58 L 202.983 41.58 Q 204.003 41.58 205.003 40.67 L 205.003 40.67 L 205.003 40.67 Q 206.003 39.76 206.783 38.16 L 206.783 38.16 L 207.043 38.36 L 207.043 38.36 Q 206.303 40.1 205.043 41.21 L 205.043 41.21 L 205.043 41.21 Q 203.783 42.32 202.403 42.32 L 202.403 42.32 Z  M 207.263 47 L 207.263 47 Q 206.723 47 206.363 46.72 L 206.363 46.72 L 206.363 46.72 Q 206.003 46.44 206.003 45.94 L 206.003 45.94 L 206.003 45.94 Q 206.003 45.14 206.513 44.53 L 206.513 44.53 L 206.513 44.53 Q 207.023 43.92 207.763 43.47 L 207.763 43.47 L 207.763 43.47 Q 208.503 43.02 209.883 42.32 L 209.883 42.32 L 209.883 42.32 Q 210.483 40.78 211.003 38.66 L 211.003 38.66 L 211.003 38.66 Q 210.283 39.84 209.563 40.52 L 209.563 40.52 L 209.563 40.52 Q 208.843 41.2 208.083 41.2 L 208.083 41.2 L 208.083 41.2 Q 207.443 41.2 206.963 40.78 L 206.963 40.78 L 206.963 40.78 Q 206.483 40.36 206.483 39.58 L 206.483 39.58 L 206.483 39.58 Q 206.483 38.86 206.803 37.82 L 206.803 37.82 L 206.803 37.82 Q 207.123 36.78 207.543 36 L 207.543 36 L 207.543 36 Q 207.963 35.22 208.243 35.22 L 208.243 35.22 L 208.243 35.22 Q 208.423 35.22 208.773 35.37 L 208.773 35.37 L 208.773 35.37 Q 209.123 35.52 209.123 35.68 L 209.123 35.68 L 209.123 35.68 Q 208.723 36.26 208.263 37.55 L 208.263 37.55 L 208.263 37.55 Q 207.803 38.84 207.803 39.6 L 207.803 39.6 L 207.803 39.6 Q 207.803 40.4 208.523 40.4 L 208.523 40.4 L 208.523 40.4 Q 209.063 40.4 209.793 39.66 L 209.793 39.66 L 209.793 39.66 Q 210.523 38.92 211.183 37.84 L 211.183 37.84 L 211.183 37.84 Q 211.283 37.5 211.383 36.92 L 211.383 36.92 L 211.383 36.92 Q 211.463 36.54 211.713 36.22 L 211.713 36.22 L 211.713 36.22 Q 211.963 35.9 212.403 35.9 L 212.403 35.9 L 212.403 35.9 Q 212.583 35.9 212.823 35.96 L 212.823 35.96 L 212.823 35.96 Q 212.823 36.5 212.373 38.18 L 212.373 38.18 L 212.373 38.18 Q 211.923 39.86 211.263 41.56 L 211.263 41.56 L 211.263 41.56 Q 212.263 41.16 213.143 40.31 L 213.143 40.31 L 213.143 40.31 Q 214.023 39.46 214.563 38.16 L 214.563 38.16 L 214.823 38.36 L 214.823 38.36 Q 214.083 40.7 211.043 42.1 L 211.043 42.1 L 211.043 42.1 Q 210.163 44.26 209.193 45.63 L 209.193 45.63 L 209.193 45.63 Q 208.223 47 207.263 47 L 207.263 47 Z  M 207.163 46.36 L 207.163 46.36 Q 207.383 46.36 207.783 45.99 L 207.783 45.99 L 207.783 45.99 Q 208.183 45.62 208.683 44.82 L 208.683 44.82 L 208.683 44.82 Q 209.183 44.02 209.683 42.8 L 209.683 42.8 L 209.683 42.8 Q 208.623 43.36 208.013 43.75 L 208.013 43.75 L 208.013 43.75 Q 207.403 44.14 207.013 44.64 L 207.013 44.64 L 207.013 44.64 Q 206.623 45.14 206.623 45.76 L 206.623 45.76 L 206.623 45.76 Q 206.623 45.96 206.763 46.16 L 206.763 46.16 L 206.763 46.16 Q 206.903 46.36 207.163 46.36 L 207.163 46.36 Z  M 214.983 39.34 L 214.983 39.34 Q 214.983 38.72 215.283 37.78 L 215.283 37.78 L 215.283 37.78 Q 215.583 36.84 216.083 35.54 L 216.083 35.54 L 216.083 35.54 Q 217.643 31.5 218.693 29.25 L 218.693 29.25 L 218.693 29.25 Q 219.743 27 220.463 27 L 220.463 27 L 220.463 27 Q 220.623 27 220.743 27.13 L 220.743 27.13 L 220.743 27.13 Q 220.863 27.26 220.863 27.46 L 220.863 27.46 L 220.863 27.46 Q 220.863 27.98 219.733 30.42 L 219.733 30.42 L 219.733 30.42 Q 218.603 32.86 217.163 35.57 L 217.163 35.57 L 217.163 35.57 Q 215.723 38.28 214.983 39.34 L 214.983 39.34 Z  M 214.403 41.6 L 214.403 41.6 Q 214.123 41.6 213.943 41.46 L 213.943 41.46 L 213.943 41.46 Q 213.763 41.32 213.763 41.06 L 213.763 41.06 L 213.763 41.06 Q 213.763 40.74 214.143 40.49 L 214.143 40.49 L 214.143 40.49 Q 214.523 40.24 214.923 40.24 L 214.923 40.24 L 214.923 40.24 Q 215.443 40.24 215.443 40.72 L 215.443 40.72 L 215.443 40.72 Q 215.443 41.02 215.113 41.31 L 215.113 41.31 L 215.113 41.31 Q 214.783 41.6 214.403 41.6 L 214.403 41.6 Z  M 108.863 42.52 L 108.863 42.52 Q 107.863 42.52 107.243 41.86 L 107.243 41.86 L 107.243 41.86 Q 106.623 41.2 106.623 39.96 L 106.623 39.96 L 106.623 39.96 Q 106.623 38.66 107.283 37.42 L 107.283 37.42 L 107.283 37.42 Q 107.943 36.18 108.973 35.41 L 108.973 35.41 L 108.973 35.41 Q 110.003 34.64 111.003 34.64 L 111.003 34.64 L 111.003 34.64 Q 111.763 34.64 112.093 35.07 L 112.093 35.07 L 112.093 35.07 Q 112.423 35.5 112.423 36.12 L 112.423 36.12 L 112.423 36.12 Q 112.423 36.72 112.153 37.15 L 112.153 37.15 L 112.153 37.15 Q 111.883 37.58 111.423 37.58 L 111.423 37.58 L 111.423 37.58 Q 111.083 37.58 110.843 37.28 L 110.843 37.28 L 110.843 37.28 Q 111.143 37.14 111.363 36.65 L 111.363 36.65 L 111.363 36.65 Q 111.583 36.16 111.583 35.7 L 111.583 35.7 L 111.583 35.7 Q 111.583 35.44 111.483 35.32 L 111.483 35.32 L 111.483 35.32 Q 111.383 35.2 111.143 35.2 L 111.143 35.2 L 111.143 35.2 Q 110.463 35.2 109.693 36.01 L 109.693 36.01 L 109.693 36.01 Q 108.923 36.82 108.393 37.98 L 108.393 37.98 L 108.393 37.98 Q 107.863 39.14 107.863 40.1 L 107.863 40.1 L 107.863 40.1 Q 107.863 40.82 108.203 41.29 L 108.203 41.29 L 108.203 41.29 Q 108.543 41.76 109.323 41.76 L 109.323 41.76 L 109.323 41.76 Q 110.543 41.76 111.733 40.76 L 111.733 40.76 L 111.733 40.76 Q 112.923 39.76 113.563 38.14 L 113.563 38.14 L 113.823 38.34 L 113.823 38.34 Q 113.363 39.54 112.563 40.49 L 112.563 40.49 L 112.563 40.49 Q 111.763 41.44 110.793 41.98 L 110.793 41.98 L 110.793 41.98 Q 109.823 42.52 108.863 42.52 L 108.863 42.52 Z  M 114.563 42.04 L 114.563 42.04 Q 113.743 42.04 113.363 41.54 L 113.363 41.54 L 113.363 41.54 Q 112.983 41.04 112.983 40.22 L 112.983 40.22 L 112.983 40.22 Q 112.983 39.4 113.323 38.5 L 113.323 38.5 L 113.323 38.5 Q 113.663 37.6 114.203 37 L 114.203 37 L 114.203 37 Q 114.743 36.4 115.283 36.4 L 115.283 36.4 L 115.283 36.4 Q 115.463 36.4 115.703 36.5 L 115.703 36.5 L 115.703 36.5 Q 115.463 36.7 115.123 37.38 L 115.123 37.38 L 115.123 37.38 Q 114.783 38.06 114.533 38.83 L 114.533 38.83 L 114.533 38.83 Q 114.283 39.6 114.283 40.08 L 114.283 40.08 L 114.283 40.08 Q 114.283 41.22 115.003 41.22 L 115.003 41.22 L 115.003 41.22 Q 115.423 41.22 116.003 40.78 L 116.003 40.78 L 116.003 40.78 Q 116.583 40.34 117.143 39.62 L 117.143 39.62 L 117.143 39.62 Q 116.583 39.16 116.273 38.42 L 116.273 38.42 L 116.273 38.42 Q 115.963 37.68 115.963 36.88 L 115.963 36.88 L 115.963 36.88 Q 115.963 35.84 116.493 35.1 L 116.493 35.1 L 116.493 35.1 Q 117.023 34.36 117.923 34.36 L 117.923 34.36 L 117.923 34.36 Q 118.683 34.36 118.993 34.77 L 118.993 34.77 L 118.993 34.77 Q 119.303 35.18 119.303 35.9 L 119.303 35.9 L 119.303 35.9 Q 119.303 36.66 118.933 37.61 L 118.933 37.61 L 118.933 37.61 Q 118.563 38.56 117.963 39.46 L 117.963 39.46 L 117.963 39.46 Q 118.323 39.66 118.723 39.66 L 118.723 39.66 L 118.723 39.66 Q 119.303 39.66 119.923 39.31 L 119.923 39.31 L 119.923 39.31 Q 120.543 38.96 120.863 38.22 L 120.863 38.22 L 121.103 38.42 L 121.103 38.42 Q 120.723 39.3 120.023 39.72 L 120.023 39.72 L 120.023 39.72 Q 119.323 40.14 118.583 40.14 L 118.583 40.14 L 118.583 40.14 Q 118.043 40.14 117.623 39.94 L 117.623 39.94 L 117.623 39.94 Q 116.903 40.88 116.093 41.46 L 116.093 41.46 L 116.093 41.46 Q 115.283 42.04 114.563 42.04 L 114.563 42.04 Z  M 117.503 39.1 L 117.503 39.1 Q 118.023 38.32 118.343 37.51 L 118.343 37.51 L 118.343 37.51 Q 118.663 36.7 118.663 36.02 L 118.663 36.02 L 118.663 36.02 Q 118.663 35.46 118.493 35.18 L 118.493 35.18 L 118.493 35.18 Q 118.323 34.9 118.063 34.9 L 118.063 34.9 L 118.063 34.9 Q 117.783 34.9 117.493 35.17 L 117.493 35.17 L 117.493 35.17 Q 117.203 35.44 117.013 35.91 L 117.013 35.91 L 117.013 35.91 Q 116.823 36.38 116.823 36.94 L 116.823 36.94 L 116.823 36.94 Q 116.823 37.56 116.993 38.13 L 116.993 38.13 L 116.993 38.13 Q 117.163 38.7 117.503 39.1 L 117.503 39.1 Z  M 130.563 42.02 L 130.563 42.02 Q 129.903 42.02 129.563 41.61 L 129.563 41.61 L 129.563 41.61 Q 129.223 41.2 129.223 40.56 L 129.223 40.56 L 129.223 40.56 Q 129.223 40.02 129.543 38.98 L 129.543 38.98 L 129.543 38.98 Q 129.643 38.64 129.733 38.3 L 129.733 38.3 L 129.733 38.3 Q 129.823 37.96 129.823 37.72 L 129.823 37.72 L 129.823 37.72 Q 129.823 37.36 129.653 37.18 L 129.653 37.18 L 129.653 37.18 Q 129.483 37 129.243 37 L 129.243 37 L 129.243 37 Q 128.783 37 128.253 37.65 L 128.253 37.65 L 128.253 37.65 Q 127.723 38.3 126.623 39.98 L 126.623 39.98 L 126.623 39.98 Q 126.343 40.42 125.843 41.46 L 125.843 41.46 L 125.663 41.84 L 125.663 41.84 Q 125.343 41.84 124.993 41.73 L 124.993 41.73 L 124.993 41.73 Q 124.643 41.62 124.643 41.44 L 124.643 41.44 L 124.643 41.44 Q 124.643 41.3 124.983 40.38 L 124.983 40.38 L 124.983 40.38 Q 125.403 39.14 125.653 38.29 L 125.653 38.29 L 125.653 38.29 Q 125.903 37.44 125.903 36.84 L 125.903 36.84 L 125.903 36.84 Q 125.903 36.08 125.403 36.08 L 125.403 36.08 L 125.403 36.08 Q 124.843 36.08 123.953 36.98 L 123.953 36.98 L 123.953 36.98 Q 123.063 37.88 122.203 39.25 L 122.203 39.25 L 122.203 39.25 Q 121.343 40.62 120.863 41.94 L 120.863 41.94 L 120.863 41.94 Q 120.563 41.94 120.173 41.8 L 120.173 41.8 L 120.173 41.8 Q 119.783 41.66 119.783 41.52 L 119.783 41.52 L 119.783 41.52 Q 119.783 41.46 120.063 40.58 L 120.063 40.58 L 120.063 40.58 Q 120.523 39.24 120.833 38.12 L 120.833 38.12 L 120.833 38.12 Q 121.143 37 121.163 36.18 L 121.163 36.18 L 121.163 36.18 Q 121.303 36.02 121.563 35.89 L 121.563 35.89 L 121.563 35.89 Q 121.823 35.76 122.083 35.76 L 122.083 35.76 L 122.083 35.76 Q 122.623 35.76 122.623 36.28 L 122.623 36.28 L 122.623 36.28 Q 122.623 36.82 122.103 38.56 L 122.103 38.56 L 122.103 38.56 Q 123.083 37 124.213 35.88 L 124.213 35.88 L 124.213 35.88 Q 125.343 34.76 126.323 34.76 L 126.323 34.76 L 126.323 34.76 Q 126.903 34.76 127.153 35.18 L 127.153 35.18 L 127.153 35.18 Q 127.403 35.6 127.403 36.28 L 127.403 36.28 L 127.403 36.28 Q 127.403 36.96 127.203 37.76 L 127.203 37.76 L 127.203 37.76 Q 127.003 38.56 126.783 39.1 L 126.783 39.1 L 126.783 39.1 Q 127.543 37.72 128.363 36.87 L 128.363 36.87 L 128.363 36.87 Q 129.183 36.02 130.103 36.02 L 130.103 36.02 L 130.103 36.02 Q 130.703 36.02 130.973 36.38 L 130.973 36.38 L 130.973 36.38 Q 131.243 36.74 131.243 37.3 L 131.243 37.3 L 131.243 37.3 Q 131.243 37.68 131.143 38.11 L 131.143 38.11 L 131.143 38.11 Q 131.043 38.54 130.843 39.16 L 130.843 39.16 L 130.843 39.16 Q 130.503 40.22 130.503 40.64 L 130.503 40.64 L 130.503 40.64 Q 130.503 41.32 131.103 41.32 L 131.103 41.32 L 131.103 41.32 Q 131.843 41.32 132.503 40.41 L 132.503 40.41 L 132.503 40.41 Q 133.163 39.5 133.783 38.16 L 133.783 38.16 L 134.023 38.44 L 134.023 38.44 Q 133.463 39.92 132.563 40.97 L 132.563 40.97 L 132.563 40.97 Q 131.663 42.02 130.563 42.02 L 130.563 42.02 Z  M 143.483 42.02 L 143.483 42.02 Q 142.823 42.02 142.483 41.61 L 142.483 41.61 L 142.483 41.61 Q 142.143 41.2 142.143 40.56 L 142.143 40.56 L 142.143 40.56 Q 142.143 40.02 142.463 38.98 L 142.463 38.98 L 142.463 38.98 Q 142.563 38.64 142.653 38.3 L 142.653 38.3 L 142.653 38.3 Q 142.743 37.96 142.743 37.72 L 142.743 37.72 L 142.743 37.72 Q 142.743 37.36 142.573 37.18 L 142.573 37.18 L 142.573 37.18 Q 142.403 37 142.163 37 L 142.163 37 L 142.163 37 Q 141.703 37 141.173 37.65 L 141.173 37.65 L 141.173 37.65 Q 140.643 38.3 139.543 39.98 L 139.543 39.98 L 139.543 39.98 Q 139.263 40.42 138.763 41.46 L 138.763 41.46 L 138.583 41.84 L 138.583 41.84 Q 138.263 41.84 137.913 41.73 L 137.913 41.73 L 137.913 41.73 Q 137.563 41.62 137.563 41.44 L 137.563 41.44 L 137.563 41.44 Q 137.563 41.3 137.903 40.38 L 137.903 40.38 L 137.903 40.38 Q 138.323 39.14 138.573 38.29 L 138.573 38.29 L 138.573 38.29 Q 138.823 37.44 138.823 36.84 L 138.823 36.84 L 138.823 36.84 Q 138.823 36.08 138.323 36.08 L 138.323 36.08 L 138.323 36.08 Q 137.763 36.08 136.873 36.98 L 136.873 36.98 L 136.873 36.98 Q 135.983 37.88 135.123 39.25 L 135.123 39.25 L 135.123 39.25 Q 134.263 40.62 133.783 41.94 L 133.783 41.94 L 133.783 41.94 Q 133.483 41.94 133.093 41.8 L 133.093 41.8 L 133.093 41.8 Q 132.703 41.66 132.703 41.52 L 132.703 41.52 L 132.703 41.52 Q 132.703 41.46 132.983 40.58 L 132.983 40.58 L 132.983 40.58 Q 133.443 39.24 133.753 38.12 L 133.753 38.12 L 133.753 38.12 Q 134.063 37 134.083 36.18 L 134.083 36.18 L 134.083 36.18 Q 134.223 36.02 134.483 35.89 L 134.483 35.89 L 134.483 35.89 Q 134.743 35.76 135.003 35.76 L 135.003 35.76 L 135.003 35.76 Q 135.543 35.76 135.543 36.28 L 135.543 36.28 L 135.543 36.28 Q 135.543 36.82 135.023 38.56 L 135.023 38.56 L 135.023 38.56 Q 136.003 37 137.133 35.88 L 137.133 35.88 L 137.133 35.88 Q 138.263 34.76 139.243 34.76 L 139.243 34.76 L 139.243 34.76 Q 139.823 34.76 140.073 35.18 L 140.073 35.18 L 140.073 35.18 Q 140.323 35.6 140.323 36.28 L 140.323 36.28 L 140.323 36.28 Q 140.323 36.96 140.123 37.76 L 140.123 37.76 L 140.123 37.76 Q 139.923 38.56 139.703 39.1 L 139.703 39.1 L 139.703 39.1 Q 140.463 37.72 141.283 36.87 L 141.283 36.87 L 141.283 36.87 Q 142.103 36.02 143.023 36.02 L 143.023 36.02 L 143.023 36.02 Q 143.623 36.02 143.893 36.38 L 143.893 36.38 L 143.893 36.38 Q 144.163 36.74 144.163 37.3 L 144.163 37.3 L 144.163 37.3 Q 144.163 37.68 144.063 38.11 L 144.063 38.11 L 144.063 38.11 Q 143.963 38.54 143.763 39.16 L 143.763 39.16 L 143.763 39.16 Q 143.423 40.22 143.423 40.64 L 143.423 40.64 L 143.423 40.64 Q 143.423 41.32 144.023 41.32 L 144.023 41.32 L 144.023 41.32 Q 144.763 41.32 145.423 40.41 L 145.423 40.41 L 145.423 40.41 Q 146.083 39.5 146.703 38.16 L 146.703 38.16 L 146.943 38.44 L 146.943 38.44 Q 146.383 39.92 145.483 40.97 L 145.483 40.97 L 145.483 40.97 Q 144.583 42.02 143.483 42.02 L 143.483 42.02 Z  M 150.163 32.76 L 150.163 32.76 Q 149.803 32.76 149.573 32.59 L 149.573 32.59 L 149.573 32.59 Q 149.343 32.42 149.343 32.1 L 149.343 32.1 L 149.343 32.1 Q 149.343 31.7 149.823 31.38 L 149.823 31.38 L 149.823 31.38 Q 150.303 31.06 150.803 31.06 L 150.803 31.06 L 150.803 31.06 Q 151.463 31.06 151.463 31.68 L 151.463 31.68 L 151.463 31.68 Q 151.463 32.06 151.053 32.41 L 151.053 32.41 L 151.053 32.41 Q 150.643 32.76 150.163 32.76 L 150.163 32.76 Z  M 147.763 41.92 L 147.763 41.92 Q 147.023 41.92 146.623 41.45 L 146.623 41.45 L 146.623 41.45 Q 146.223 40.98 146.223 40.24 L 146.223 40.24 L 146.223 40.24 Q 146.223 39.46 146.673 38.08 L 146.673 38.08 L 146.673 38.08 Q 147.123 36.7 147.793 35.66 L 147.793 35.66 L 147.793 35.66 Q 148.463 34.62 149.103 34.62 L 149.103 34.62 L 149.103 34.62 Q 149.283 34.62 149.413 34.74 L 149.413 34.74 L 149.413 34.74 Q 149.543 34.86 149.543 35.06 L 149.543 35.06 L 149.543 35.06 Q 149.543 35.34 148.903 36.4 L 148.903 36.4 L 148.903 36.4 Q 148.243 37.5 147.853 38.37 L 147.853 38.37 L 147.853 38.37 Q 147.463 39.24 147.463 40.02 L 147.463 40.02 L 147.463 40.02 Q 147.463 40.72 147.693 40.97 L 147.693 40.97 L 147.693 40.97 Q 147.923 41.22 148.443 41.22 L 148.443 41.22 L 148.443 41.22 Q 150.003 41.22 151.523 38.16 L 151.523 38.16 L 151.703 38.36 L 151.703 38.36 Q 151.143 40.04 150.053 40.98 L 150.053 40.98 L 150.053 40.98 Q 148.963 41.92 147.763 41.92 L 147.763 41.92 Z  M 152.843 42.32 L 152.843 42.32 Q 151.063 42.32 151.063 40.34 L 151.063 40.34 L 151.063 40.34 Q 151.063 39.48 151.373 38.21 L 151.373 38.21 L 151.373 38.21 Q 151.683 36.94 152.223 35.52 L 152.223 35.52 L 152.223 35.52 Q 151.743 35.44 151.503 35.36 L 151.503 35.36 L 151.503 35 L 151.503 35 Q 152.223 35.08 152.383 35.08 L 152.383 35.08 L 152.383 35.08 Q 153.263 32.8 154.273 31.13 L 154.273 31.13 L 154.273 31.13 Q 155.283 29.46 155.863 29.46 L 155.863 29.46 L 155.863 29.46 Q 156.023 29.46 156.153 29.58 L 156.153 29.58 L 156.153 29.58 Q 156.283 29.7 156.283 29.9 L 156.283 29.9 L 156.283 29.9 Q 156.283 30.16 156.033 30.66 L 156.033 30.66 L 156.033 30.66 Q 155.783 31.16 155.183 32.2 L 155.183 32.2 L 155.183 32.2 Q 155.083 32.4 154.563 33.31 L 154.563 33.31 L 154.563 33.31 Q 154.043 34.22 153.623 35.14 L 153.623 35.14 L 154.363 35.14 L 154.363 35.14 Q 156.023 35.14 157.223 35.02 L 157.223 35.02 L 157.223 35.38 L 157.223 35.38 Q 155.043 35.62 153.703 35.62 L 153.703 35.62 L 153.403 35.62 L 153.403 35.62 Q 152.303 38.14 152.303 39.98 L 152.303 39.98 L 152.303 39.98 Q 152.303 40.84 152.563 41.21 L 152.563 41.21 L 152.563 41.21 Q 152.823 41.58 153.423 41.58 L 153.423 41.58 L 153.423 41.58 Q 154.443 41.58 155.443 40.67 L 155.443 40.67 L 155.443 40.67 Q 156.443 39.76 157.223 38.16 L 157.223 38.16 L 157.483 38.36 L 157.483 38.36 Q 156.743 40.1 155.483 41.21 L 155.483 41.21 L 155.483 41.21 Q 154.223 42.32 152.843 42.32 L 152.843 42.32 Z  M 71.583 47 L 71.583 47 Q 71.043 47 70.683 46.72 L 70.683 46.72 L 70.683 46.72 Q 70.323 46.44 70.323 45.94 L 70.323 45.94 L 70.323 45.94 Q 70.323 45.14 70.833 44.53 L 70.833 44.53 L 70.833 44.53 Q 71.343 43.92 72.083 43.47 L 72.083 43.47 L 72.083 43.47 Q 72.823 43.02 74.203 42.32 L 74.203 42.32 L 74.203 42.32 Q 74.803 40.78 75.323 38.66 L 75.323 38.66 L 75.323 38.66 Q 74.603 39.84 73.883 40.52 L 73.883 40.52 L 73.883 40.52 Q 73.163 41.2 72.403 41.2 L 72.403 41.2 L 72.403 41.2 Q 71.763 41.2 71.283 40.78 L 71.283 40.78 L 71.283 40.78 Q 70.803 40.36 70.803 39.58 L 70.803 39.58 L 70.803 39.58 Q 70.803 38.86 71.123 37.82 L 71.123 37.82 L 71.123 37.82 Q 71.443 36.78 71.863 36 L 71.863 36 L 71.863 36 Q 72.283 35.22 72.563 35.22 L 72.563 35.22 L 72.563 35.22 Q 72.743 35.22 73.093 35.37 L 73.093 35.37 L 73.093 35.37 Q 73.443 35.52 73.443 35.68 L 73.443 35.68 L 73.443 35.68 Q 73.043 36.26 72.583 37.55 L 72.583 37.55 L 72.583 37.55 Q 72.123 38.84 72.123 39.6 L 72.123 39.6 L 72.123 39.6 Q 72.123 40.4 72.843 40.4 L 72.843 40.4 L 72.843 40.4 Q 73.383 40.4 74.113 39.66 L 74.113 39.66 L 74.113 39.66 Q 74.843 38.92 75.503 37.84 L 75.503 37.84 L 75.503 37.84 Q 75.603 37.5 75.703 36.92 L 75.703 36.92 L 75.703 36.92 Q 75.783 36.54 76.033 36.22 L 76.033 36.22 L 76.033 36.22 Q 76.283 35.9 76.723 35.9 L 76.723 35.9 L 76.723 35.9 Q 76.903 35.9 77.143 35.96 L 77.143 35.96 L 77.143 35.96 Q 77.143 36.5 76.693 38.18 L 76.693 38.18 L 76.693 38.18 Q 76.243 39.86 75.583 41.56 L 75.583 41.56 L 75.583 41.56 Q 76.583 41.16 77.463 40.31 L 77.463 40.31 L 77.463 40.31 Q 78.343 39.46 78.883 38.16 L 78.883 38.16 L 79.143 38.36 L 79.143 38.36 Q 78.403 40.7 75.363 42.1 L 75.363 42.1 L 75.363 42.1 Q 74.483 44.26 73.513 45.63 L 73.513 45.63 L 73.513 45.63 Q 72.543 47 71.583 47 L 71.583 47 Z  M 71.483 46.36 L 71.483 46.36 Q 71.703 46.36 72.103 45.99 L 72.103 45.99 L 72.103 45.99 Q 72.503 45.62 73.003 44.82 L 73.003 44.82 L 73.003 44.82 Q 73.503 44.02 74.003 42.8 L 74.003 42.8 L 74.003 42.8 Q 72.943 43.36 72.333 43.75 L 72.333 43.75 L 72.333 43.75 Q 71.723 44.14 71.333 44.64 L 71.333 44.64 L 71.333 44.64 Q 70.943 45.14 70.943 45.76 L 70.943 45.76 L 70.943 45.76 Q 70.943 45.96 71.083 46.16 L 71.083 46.16 L 71.083 46.16 Q 71.223 46.36 71.483 46.36 L 71.483 46.36 Z  M 79.883 42.04 L 79.883 42.04 Q 79.063 42.04 78.683 41.54 L 78.683 41.54 L 78.683 41.54 Q 78.303 41.04 78.303 40.22 L 78.303 40.22 L 78.303 40.22 Q 78.303 39.4 78.643 38.5 L 78.643 38.5 L 78.643 38.5 Q 78.983 37.6 79.523 37 L 79.523 37 L 79.523 37 Q 80.063 36.4 80.603 36.4 L 80.603 36.4 L 80.603 36.4 Q 80.783 36.4 81.023 36.5 L 81.023 36.5 L 81.023 36.5 Q 80.783 36.7 80.443 37.38 L 80.443 37.38 L 80.443 37.38 Q 80.103 38.06 79.853 38.83 L 79.853 38.83 L 79.853 38.83 Q 79.603 39.6 79.603 40.08 L 79.603 40.08 L 79.603 40.08 Q 79.603 41.22 80.323 41.22 L 80.323 41.22 L 80.323 41.22 Q 80.743 41.22 81.323 40.78 L 81.323 40.78 L 81.323 40.78 Q 81.903 40.34 82.463 39.62 L 82.463 39.62 L 82.463 39.62 Q 81.903 39.16 81.593 38.42 L 81.593 38.42 L 81.593 38.42 Q 81.283 37.68 81.283 36.88 L 81.283 36.88 L 81.283 36.88 Q 81.283 35.84 81.813 35.1 L 81.813 35.1 L 81.813 35.1 Q 82.343 34.36 83.243 34.36 L 83.243 34.36 L 83.243 34.36 Q 84.003 34.36 84.313 34.77 L 84.313 34.77 L 84.313 34.77 Q 84.623 35.18 84.623 35.9 L 84.623 35.9 L 84.623 35.9 Q 84.623 36.66 84.253 37.61 L 84.253 37.61 L 84.253 37.61 Q 83.883 38.56 83.283 39.46 L 83.283 39.46 L 83.283 39.46 Q 83.643 39.66 84.043 39.66 L 84.043 39.66 L 84.043 39.66 Q 84.623 39.66 85.243 39.31 L 85.243 39.31 L 85.243 39.31 Q 85.863 38.96 86.183 38.22 L 86.183 38.22 L 86.423 38.42 L 86.423 38.42 Q 86.043 39.3 85.343 39.72 L 85.343 39.72 L 85.343 39.72 Q 84.643 40.14 83.903 40.14 L 83.903 40.14 L 83.903 40.14 Q 83.363 40.14 82.943 39.94 L 82.943 39.94 L 82.943 39.94 Q 82.223 40.88 81.413 41.46 L 81.413 41.46 L 81.413 41.46 Q 80.603 42.04 79.883 42.04 L 79.883 42.04 Z  M 82.823 39.1 L 82.823 39.1 Q 83.343 38.32 83.663 37.51 L 83.663 37.51 L 83.663 37.51 Q 83.983 36.7 83.983 36.02 L 83.983 36.02 L 83.983 36.02 Q 83.983 35.46 83.813 35.18 L 83.813 35.18 L 83.813 35.18 Q 83.643 34.9 83.383 34.9 L 83.383 34.9 L 83.383 34.9 Q 83.103 34.9 82.813 35.17 L 82.813 35.17 L 82.813 35.17 Q 82.523 35.44 82.333 35.91 L 82.333 35.91 L 82.333 35.91 Q 82.143 36.38 82.143 36.94 L 82.143 36.94 L 82.143 36.94 Q 82.143 37.56 82.313 38.13 L 82.313 38.13 L 82.313 38.13 Q 82.483 38.7 82.823 39.1 L 82.823 39.1 Z  M 87.303 42 L 87.303 42 Q 86.643 42 86.223 41.41 L 86.223 41.41 L 86.223 41.41 Q 85.803 40.82 85.803 39.98 L 85.803 39.98 L 85.803 39.98 Q 85.803 39.24 86.113 38.15 L 86.113 38.15 L 86.113 38.15 Q 86.423 37.06 86.853 36.25 L 86.853 36.25 L 86.853 36.25 Q 87.283 35.44 87.563 35.44 L 87.563 35.44 L 87.563 35.44 Q 87.683 35.44 87.913 35.56 L 87.913 35.56 L 87.913 35.56 Q 88.143 35.68 88.303 35.84 L 88.303 35.84 L 88.303 35.84 Q 87.883 36.5 87.423 37.73 L 87.423 37.73 L 87.423 37.73 Q 86.963 38.96 86.963 39.86 L 86.963 39.86 L 86.963 39.86 Q 86.963 40.32 87.113 40.76 L 87.113 40.76 L 87.113 40.76 Q 87.263 41.2 87.683 41.2 L 87.683 41.2 L 87.683 41.2 Q 88.383 41.2 89.213 39.91 L 89.213 39.91 L 89.213 39.91 Q 90.043 38.62 91.003 36.64 L 91.003 36.64 L 91.323 35.98 L 91.323 35.98 Q 92.283 36.16 92.283 36.5 L 92.283 36.5 L 92.283 36.5 Q 92.283 36.54 92.193 36.77 L 92.193 36.77 L 92.193 36.77 Q 92.103 37 92.023 37.18 L 92.023 37.18 L 92.023 37.18 Q 91.563 38.2 91.253 39.09 L 91.253 39.09 L 91.253 39.09 Q 90.943 39.98 90.943 40.6 L 90.943 40.6 L 90.943 40.6 Q 90.943 41.4 91.603 41.4 L 91.603 41.4 L 91.603 41.4 Q 92.043 41.4 92.643 41.01 L 92.643 41.01 L 92.643 41.01 Q 93.243 40.62 93.863 39.88 L 93.863 39.88 L 93.863 39.88 Q 94.483 39.14 94.943 38.16 L 94.943 38.16 L 95.203 38.34 L 95.203 38.34 Q 94.783 39.4 94.113 40.23 L 94.113 40.23 L 94.113 40.23 Q 93.443 41.06 92.663 41.53 L 92.663 41.53 L 92.663 41.53 Q 91.883 42 91.183 42 L 91.183 42 L 91.183 42 Q 89.783 42 89.783 40.52 L 89.783 40.52 L 89.783 40.52 Q 89.783 40.12 89.923 39.52 L 89.923 39.52 L 89.923 39.52 Q 89.283 40.66 88.643 41.33 L 88.643 41.33 L 88.643 41.33 Q 88.003 42 87.303 42 L 87.303 42 Z  M 98.023 41.92 L 98.023 41.92 Q 97.343 41.92 96.953 41.56 L 96.953 41.56 L 96.953 41.56 Q 96.563 41.2 96.563 40.62 L 96.563 40.62 L 96.563 40.62 Q 96.563 39.94 97.143 38.66 L 97.143 38.66 L 97.143 38.66 Q 97.403 38 97.533 37.61 L 97.533 37.61 L 97.533 37.61 Q 97.663 37.22 97.663 36.88 L 97.663 36.88 L 97.663 36.88 Q 97.663 36.38 97.433 36.09 L 97.433 36.09 L 97.433 36.09 Q 97.203 35.8 96.923 35.61 L 96.923 35.61 L 96.923 35.61 Q 96.643 35.42 96.543 35.36 L 96.543 35.36 L 96.543 35.36 Q 96.103 36.48 95.603 37.55 L 95.603 37.55 L 95.603 37.55 Q 95.103 38.62 94.763 39.2 L 94.763 39.2 L 94.583 38.86 L 94.583 38.86 Q 95.543 37 96.203 35.06 L 96.203 35.06 L 96.203 35.06 Q 96.003 34.86 96.003 34.58 L 96.003 34.58 L 96.003 34.58 Q 96.003 34.22 96.153 33.9 L 96.153 33.9 L 96.153 33.9 Q 96.303 33.58 96.513 33.4 L 96.513 33.4 L 96.513 33.4 Q 96.723 33.22 96.843 33.22 L 96.843 33.22 L 96.843 33.22 Q 97.123 33.22 97.123 33.7 L 97.123 33.7 L 97.123 33.7 Q 97.123 33.78 97.023 34.06 L 97.023 34.06 L 97.023 34.06 Q 96.923 34.34 96.903 34.44 L 96.903 34.44 L 96.903 34.44 Q 96.903 34.64 97.073 34.81 L 97.073 34.81 L 97.073 34.81 Q 97.243 34.98 97.623 35.24 L 97.623 35.24 L 97.623 35.24 Q 98.243 35.68 98.593 36.11 L 98.593 36.11 L 98.593 36.11 Q 98.943 36.54 98.943 37.22 L 98.943 37.22 L 98.943 37.22 Q 98.943 37.66 98.803 38.09 L 98.803 38.09 L 98.803 38.09 Q 98.663 38.52 98.383 39.22 L 98.383 39.22 L 98.383 39.22 Q 97.943 40.18 97.943 40.6 L 97.943 40.6 L 97.943 40.6 Q 97.943 41.2 98.543 41.2 L 98.543 41.2 L 98.543 41.2 Q 99.143 41.2 99.833 40.72 L 99.833 40.72 L 99.833 40.72 Q 100.523 40.24 101.103 39.53 L 101.103 39.53 L 101.103 39.53 Q 101.683 38.82 101.943 38.22 L 101.943 38.22 L 102.203 38.42 L 102.203 38.42 Q 101.583 39.8 100.403 40.86 L 100.403 40.86 L 100.403 40.86 Q 99.223 41.92 98.023 41.92 L 98.023 41.92 Z  M 6.943 42.18 L 6.943 42.18 Q 6.343 42.18 6.093 41.61 L 6.093 41.61 L 6.093 41.61 Q 5.843 41.04 5.843 39.98 L 5.843 39.98 L 5.843 39.98 Q 5.843 39.6 5.963 37.36 L 5.963 37.36 L 5.963 37.36 Q 6.003 36.76 6.103 36.59 L 6.103 36.59 L 6.103 36.59 Q 6.203 36.42 6.603 36.42 L 6.603 36.42 L 6.603 36.42 Q 6.943 36.42 7.033 36.55 L 7.033 36.55 L 7.033 36.55 Q 7.123 36.68 7.123 37.06 L 7.123 37.06 L 7.123 37.06 Q 7.123 37.46 7.043 38.54 L 7.043 38.54 L 7.043 38.54 Q 6.943 39.5 6.943 40.28 L 6.943 40.28 L 6.943 40.28 Q 6.943 40.88 7.043 41.14 L 7.043 41.14 L 7.043 41.14 Q 7.143 41.4 7.403 41.4 L 7.403 41.4 L 7.403 41.4 Q 8.063 41.4 9.003 40.05 L 9.003 40.05 L 9.003 40.05 Q 9.943 38.7 10.703 37.02 L 10.703 37.02 L 10.703 37.02 Q 10.743 35.76 10.973 35.26 L 10.973 35.26 L 10.973 35.26 Q 11.203 34.76 11.623 34.76 L 11.623 34.76 L 11.623 34.76 Q 11.963 34.76 12.153 35.01 L 12.153 35.01 L 12.153 35.01 Q 12.343 35.26 12.343 35.52 L 12.343 35.52 L 12.343 35.52 Q 12.343 35.72 12.143 36.08 L 12.143 36.08 L 12.143 36.08 Q 11.903 36.54 11.773 36.99 L 11.773 36.99 L 11.773 36.99 Q 11.643 37.44 11.643 38.2 L 11.643 38.2 L 11.643 38.2 Q 11.643 38.86 11.833 39.29 L 11.833 39.29 L 11.833 39.29 Q 12.023 39.72 12.583 39.72 L 12.583 39.72 L 12.583 39.72 Q 13.023 39.72 13.403 39.38 L 13.403 39.38 L 13.403 39.38 Q 13.783 39.04 14.163 38.24 L 14.163 38.24 L 14.423 38.44 L 14.423 38.44 Q 13.703 40.12 12.443 40.12 L 12.443 40.12 L 12.443 40.12 Q 11.763 40.12 11.333 39.63 L 11.333 39.63 L 11.333 39.63 Q 10.903 39.14 10.763 38.18 L 10.763 38.18 L 10.763 38.18 Q 9.943 39.82 8.893 41 L 8.893 41 L 8.893 41 Q 7.843 42.18 6.943 42.18 L 6.943 42.18 Z  M 17.623 32.76 L 17.623 32.76 Q 17.263 32.76 17.033 32.59 L 17.033 32.59 L 17.033 32.59 Q 16.803 32.42 16.803 32.1 L 16.803 32.1 L 16.803 32.1 Q 16.803 31.7 17.283 31.38 L 17.283 31.38 L 17.283 31.38 Q 17.763 31.06 18.263 31.06 L 18.263 31.06 L 18.263 31.06 Q 18.923 31.06 18.923 31.68 L 18.923 31.68 L 18.923 31.68 Q 18.923 32.06 18.513 32.41 L 18.513 32.41 L 18.513 32.41 Q 18.103 32.76 17.623 32.76 L 17.623 32.76 Z  M 15.223 41.92 L 15.223 41.92 Q 14.483 41.92 14.083 41.45 L 14.083 41.45 L 14.083 41.45 Q 13.683 40.98 13.683 40.24 L 13.683 40.24 L 13.683 40.24 Q 13.683 39.46 14.133 38.08 L 14.133 38.08 L 14.133 38.08 Q 14.583 36.7 15.253 35.66 L 15.253 35.66 L 15.253 35.66 Q 15.923 34.62 16.563 34.62 L 16.563 34.62 L 16.563 34.62 Q 16.743 34.62 16.873 34.74 L 16.873 34.74 L 16.873 34.74 Q 17.003 34.86 17.003 35.06 L 17.003 35.06 L 17.003 35.06 Q 17.003 35.34 16.363 36.4 L 16.363 36.4 L 16.363 36.4 Q 15.703 37.5 15.313 38.37 L 15.313 38.37 L 15.313 38.37 Q 14.923 39.24 14.923 40.02 L 14.923 40.02 L 14.923 40.02 Q 14.923 40.72 15.153 40.97 L 15.153 40.97 L 15.153 40.97 Q 15.383 41.22 15.903 41.22 L 15.903 41.22 L 15.903 41.22 Q 17.463 41.22 18.983 38.16 L 18.983 38.16 L 19.163 38.36 L 19.163 38.36 Q 18.603 40.04 17.513 40.98 L 17.513 40.98 L 17.513 40.98 Q 16.423 41.92 15.223 41.92 L 15.223 41.92 Z  M 20.703 42.42 L 20.703 42.42 Q 19.403 42.42 18.803 41.64 L 18.803 41.64 L 18.803 41.64 Q 18.203 40.86 18.203 39.8 L 18.203 39.8 L 18.203 39.8 Q 18.203 39 18.483 38.67 L 18.483 38.67 L 18.483 38.67 Q 18.763 38.34 19.093 38.2 L 19.093 38.2 L 19.093 38.2 Q 19.423 38.06 19.483 38 L 19.483 38 L 19.483 38 Q 20.763 36.6 21.463 35.1 L 21.463 35.1 L 21.463 34.86 L 21.463 34.86 Q 21.463 34.18 21.693 33.84 L 21.693 33.84 L 21.693 33.84 Q 21.923 33.5 22.243 33.5 L 22.243 33.5 L 22.243 33.5 Q 22.403 33.5 22.483 33.57 L 22.483 33.57 L 22.483 33.57 Q 22.563 33.64 22.563 33.76 L 22.563 33.76 L 22.563 33.76 Q 22.563 33.84 22.503 34.09 L 22.503 34.09 L 22.503 34.09 Q 22.443 34.34 22.443 34.64 L 22.443 34.64 L 22.443 34.64 Q 22.443 35.04 22.553 35.49 L 22.553 35.49 L 22.553 35.49 Q 22.663 35.94 22.903 36.66 L 22.903 36.66 L 22.903 36.66 Q 23.183 37.52 23.333 38.16 L 23.333 38.16 L 23.333 38.16 Q 23.483 38.8 23.483 39.46 L 23.483 39.46 L 23.483 39.46 Q 23.483 39.98 23.363 40.44 L 23.363 40.44 L 23.363 40.44 Q 24.083 40.32 24.703 39.79 L 24.703 39.79 L 24.703 39.79 Q 25.323 39.26 25.883 38.18 L 25.883 38.18 L 26.063 38.38 L 26.063 38.38 Q 25.703 39.42 24.963 40.02 L 24.963 40.02 L 24.963 40.02 Q 24.223 40.62 23.263 40.76 L 23.263 40.76 L 23.263 40.76 Q 22.963 41.58 22.283 42 L 22.283 42 L 22.283 42 Q 21.603 42.42 20.703 42.42 L 20.703 42.42 Z  M 22.103 40.42 L 22.103 40.42 Q 22.183 39.9 22.183 39.48 L 22.183 39.48 L 22.183 39.48 Q 22.183 38.88 22.083 38.28 L 22.083 38.28 L 22.083 38.28 Q 21.983 37.68 21.783 36.9 L 21.783 36.9 L 21.783 36.9 Q 21.603 36.1 21.563 35.86 L 21.563 35.86 L 21.563 35.86 Q 20.543 37.54 19.623 38.46 L 19.623 38.46 L 19.623 38.46 Q 19.943 39.16 20.593 39.7 L 20.593 39.7 L 20.593 39.7 Q 21.243 40.24 22.103 40.42 L 22.103 40.42 Z  M 20.743 41.72 L 20.743 41.72 Q 21.663 41.72 22.003 40.74 L 22.003 40.74 L 22.003 40.74 Q 21.203 40.58 20.543 40.11 L 20.543 40.11 L 20.543 40.11 Q 19.883 39.64 19.543 39.08 L 19.543 39.08 L 19.543 39.08 Q 19.103 39.1 19.103 39.78 L 19.103 39.78 L 19.103 39.78 Q 19.103 40.54 19.553 41.13 L 19.553 41.13 L 19.553 41.13 Q 20.003 41.72 20.743 41.72 L 20.743 41.72 Z  M 27.003 42 L 27.003 42 Q 26.343 42 25.923 41.41 L 25.923 41.41 L 25.923 41.41 Q 25.503 40.82 25.503 39.98 L 25.503 39.98 L 25.503 39.98 Q 25.503 39.24 25.813 38.15 L 25.813 38.15 L 25.813 38.15 Q 26.123 37.06 26.553 36.25 L 26.553 36.25 L 26.553 36.25 Q 26.983 35.44 27.263 35.44 L 27.263 35.44 L 27.263 35.44 Q 27.383 35.44 27.613 35.56 L 27.613 35.56 L 27.613 35.56 Q 27.843 35.68 28.003 35.84 L 28.003 35.84 L 28.003 35.84 Q 27.583 36.5 27.123 37.73 L 27.123 37.73 L 27.123 37.73 Q 26.663 38.96 26.663 39.86 L 26.663 39.86 L 26.663 39.86 Q 26.663 40.32 26.813 40.76 L 26.813 40.76 L 26.813 40.76 Q 26.963 41.2 27.383 41.2 L 27.383 41.2 L 27.383 41.2 Q 28.083 41.2 28.913 39.91 L 28.913 39.91 L 28.913 39.91 Q 29.743 38.62 30.703 36.64 L 30.703 36.64 L 31.023 35.98 L 31.023 35.98 Q 31.983 36.16 31.983 36.5 L 31.983 36.5 L 31.983 36.5 Q 31.983 36.54 31.893 36.77 L 31.893 36.77 L 31.893 36.77 Q 31.803 37 31.723 37.18 L 31.723 37.18 L 31.723 37.18 Q 31.263 38.2 30.953 39.09 L 30.953 39.09 L 30.953 39.09 Q 30.643 39.98 30.643 40.6 L 30.643 40.6 L 30.643 40.6 Q 30.643 41.4 31.303 41.4 L 31.303 41.4 L 31.303 41.4 Q 31.743 41.4 32.343 41.01 L 32.343 41.01 L 32.343 41.01 Q 32.943 40.62 33.563 39.88 L 33.563 39.88 L 33.563 39.88 Q 34.183 39.14 34.643 38.16 L 34.643 38.16 L 34.903 38.34 L 34.903 38.34 Q 34.483 39.4 33.813 40.23 L 33.813 40.23 L 33.813 40.23 Q 33.143 41.06 32.363 41.53 L 32.363 41.53 L 32.363 41.53 Q 31.583 42 30.883 42 L 30.883 42 L 30.883 42 Q 29.483 42 29.483 40.52 L 29.483 40.52 L 29.483 40.52 Q 29.483 40.12 29.623 39.52 L 29.623 39.52 L 29.623 39.52 Q 28.983 40.66 28.343 41.33 L 28.343 41.33 L 28.343 41.33 Q 27.703 42 27.003 42 L 27.003 42 Z  M 35.223 42.34 L 35.223 42.34 Q 34.563 42.34 34.153 41.91 L 34.153 41.91 L 34.153 41.91 Q 33.743 41.48 33.743 40.68 L 33.743 40.68 L 33.743 40.68 Q 33.743 39.5 34.593 38.04 L 34.593 38.04 L 34.593 38.04 Q 35.443 36.58 36.743 35.56 L 36.743 35.56 L 36.743 35.56 Q 38.043 34.54 39.283 34.54 L 39.283 34.54 L 39.283 34.54 Q 40.063 34.54 40.583 34.96 L 40.583 34.96 L 40.583 34.96 Q 41.103 35.38 41.103 36.04 L 41.103 36.04 L 41.103 36.04 Q 41.103 36.5 40.843 36.7 L 40.843 36.7 L 40.843 36.7 Q 40.583 36.9 40.123 36.9 L 40.123 36.9 L 40.123 36.9 Q 40.223 36.54 40.223 36.2 L 40.223 36.2 L 40.223 36.2 Q 40.223 35.7 39.983 35.39 L 39.983 35.39 L 39.983 35.39 Q 39.743 35.08 39.243 35.08 L 39.243 35.08 L 39.243 35.08 Q 38.363 35.08 37.393 36.06 L 37.393 36.06 L 37.393 36.06 Q 36.423 37.04 35.773 38.4 L 35.773 38.4 L 35.773 38.4 Q 35.123 39.76 35.123 40.74 L 35.123 40.74 L 35.123 40.74 Q 35.123 41.52 35.663 41.52 L 35.663 41.52 L 35.663 41.52 Q 36.463 41.52 37.543 40.25 L 37.543 40.25 L 37.543 40.25 Q 38.623 38.98 39.863 37.16 L 39.863 37.16 L 39.863 37.16 Q 40.123 37.2 40.393 37.33 L 40.393 37.33 L 40.393 37.33 Q 40.663 37.46 40.663 37.66 L 40.663 37.66 L 40.663 37.66 Q 40.663 37.82 40.473 38.17 L 40.473 38.17 L 40.473 38.17 Q 40.283 38.52 40.243 38.58 L 40.243 38.58 L 40.243 38.58 Q 39.903 39.16 39.703 39.61 L 39.703 39.61 L 39.703 39.61 Q 39.503 40.06 39.503 40.44 L 39.503 40.44 L 39.503 40.44 Q 39.503 40.78 39.673 41.05 L 39.673 41.05 L 39.673 41.05 Q 39.843 41.32 40.183 41.32 L 40.183 41.32 L 40.183 41.32 Q 40.763 41.32 41.643 40.49 L 41.643 40.49 L 41.643 40.49 Q 42.523 39.66 43.383 38.16 L 43.383 38.16 L 43.583 38.36 L 43.583 38.36 Q 43.163 39.42 42.503 40.25 L 42.503 40.25 L 42.503 40.25 Q 41.843 41.08 41.083 41.54 L 41.083 41.54 L 41.083 41.54 Q 40.323 42 39.623 42 L 39.623 42 L 39.623 42 Q 38.923 42 38.553 41.59 L 38.553 41.59 L 38.553 41.59 Q 38.183 41.18 38.183 40.6 L 38.183 40.6 L 38.183 40.6 Q 38.183 40.34 38.243 40.02 L 38.243 40.02 L 38.243 40.02 Q 37.343 41.22 36.633 41.78 L 36.633 41.78 L 36.633 41.78 Q 35.923 42.34 35.223 42.34 L 35.223 42.34 Z  M 44.643 42 L 44.643 42 Q 43.823 42 43.433 41.44 L 43.433 41.44 L 43.433 41.44 Q 43.043 40.88 43.043 39.94 L 43.043 39.94 L 43.043 39.94 Q 43.043 38.14 44.283 35.05 L 44.283 35.05 L 44.283 35.05 Q 45.523 31.96 47.053 29.48 L 47.053 29.48 L 47.053 29.48 Q 48.583 27 49.263 27 L 49.263 27 L 49.263 27 Q 49.543 27 49.733 27.49 L 49.733 27.49 L 49.733 27.49 Q 49.923 27.98 49.923 28.48 L 49.923 28.48 L 49.923 28.48 Q 49.923 29.4 49.173 31.19 L 49.173 31.19 L 49.173 31.19 Q 48.423 32.98 47.203 34.82 L 47.203 34.82 L 47.203 34.82 Q 45.983 36.66 44.603 37.8 L 44.603 37.8 L 44.603 37.8 Q 44.343 38.96 44.343 39.82 L 44.343 39.82 L 44.343 39.82 Q 44.343 41.36 45.223 41.36 L 45.223 41.36 L 45.223 41.36 Q 45.963 41.36 46.733 40.42 L 46.733 40.42 L 46.733 40.42 Q 47.503 39.48 48.103 38.16 L 48.103 38.16 L 48.403 38.32 L 48.403 38.32 Q 46.683 42 44.643 42 L 44.643 42 Z  M 44.783 37.12 L 44.783 37.12 Q 45.883 36.02 46.933 34.35 L 46.933 34.35 L 46.933 34.35 Q 47.983 32.68 48.643 31.15 L 48.643 31.15 L 48.643 31.15 Q 49.303 29.62 49.303 28.94 L 49.303 28.94 L 49.303 28.94 Q 49.303 28.62 49.163 28.62 L 49.163 28.62 L 49.163 28.62 Q 48.883 28.62 48.013 29.99 L 48.013 29.99 L 48.013 29.99 Q 47.143 31.36 46.223 33.34 L 46.223 33.34 L 46.223 33.34 Q 45.303 35.32 44.783 37.12 L 44.783 37.12 Z  M 51.543 32.76 L 51.543 32.76 Q 51.183 32.76 50.953 32.59 L 50.953 32.59 L 50.953 32.59 Q 50.723 32.42 50.723 32.1 L 50.723 32.1 L 50.723 32.1 Q 50.723 31.7 51.203 31.38 L 51.203 31.38 L 51.203 31.38 Q 51.683 31.06 52.183 31.06 L 52.183 31.06 L 52.183 31.06 Q 52.843 31.06 52.843 31.68 L 52.843 31.68 L 52.843 31.68 Q 52.843 32.06 52.433 32.41 L 52.433 32.41 L 52.433 32.41 Q 52.023 32.76 51.543 32.76 L 51.543 32.76 Z  M 49.143 41.92 L 49.143 41.92 Q 48.403 41.92 48.003 41.45 L 48.003 41.45 L 48.003 41.45 Q 47.603 40.98 47.603 40.24 L 47.603 40.24 L 47.603 40.24 Q 47.603 39.46 48.053 38.08 L 48.053 38.08 L 48.053 38.08 Q 48.503 36.7 49.173 35.66 L 49.173 35.66 L 49.173 35.66 Q 49.843 34.62 50.483 34.62 L 50.483 34.62 L 50.483 34.62 Q 50.663 34.62 50.793 34.74 L 50.793 34.74 L 50.793 34.74 Q 50.923 34.86 50.923 35.06 L 50.923 35.06 L 50.923 35.06 Q 50.923 35.34 50.283 36.4 L 50.283 36.4 L 50.283 36.4 Q 49.623 37.5 49.233 38.37 L 49.233 38.37 L 49.233 38.37 Q 48.843 39.24 48.843 40.02 L 48.843 40.02 L 48.843 40.02 Q 48.843 40.72 49.073 40.97 L 49.073 40.97 L 49.073 40.97 Q 49.303 41.22 49.823 41.22 L 49.823 41.22 L 49.823 41.22 Q 51.383 41.22 52.903 38.16 L 52.903 38.16 L 53.083 38.36 L 53.083 38.36 Q 52.523 40.04 51.433 40.98 L 51.433 40.98 L 51.433 40.98 Q 50.343 41.92 49.143 41.92 L 49.143 41.92 Z  M 52.423 47 L 52.423 47 Q 51.103 47 51.103 45.98 L 51.103 45.98 L 51.103 45.98 Q 51.103 45.36 51.543 44.8 L 51.543 44.8 L 51.543 44.8 Q 51.983 44.24 52.643 43.77 L 52.643 43.77 L 52.643 43.77 Q 53.303 43.3 54.463 42.6 L 54.463 42.6 L 54.463 42.6 Q 55.303 42.12 56.003 41.64 L 56.003 41.64 L 56.003 41.64 Q 56.003 40.9 55.693 40.3 L 55.693 40.3 L 55.693 40.3 Q 55.383 39.7 54.623 39.1 L 54.623 39.1 L 54.623 39.1 Q 55.283 38.92 55.783 38.42 L 55.783 38.42 L 55.783 38.42 Q 56.283 37.92 56.543 37.31 L 56.543 37.31 L 56.543 37.31 Q 56.803 36.7 56.803 36.16 L 56.803 36.16 L 56.803 36.16 Q 56.803 35.7 56.603 35.4 L 56.603 35.4 L 56.603 35.4 Q 56.403 35.1 56.023 35.1 L 56.023 35.1 L 56.023 35.1 Q 55.403 35.1 54.893 35.56 L 54.893 35.56 L 54.893 35.56 Q 54.383 36.02 53.983 36.73 L 53.983 36.73 L 53.983 36.73 Q 53.583 37.44 52.983 38.72 L 52.983 38.72 L 52.743 38.52 L 52.743 38.52 Q 53.263 37.14 53.723 36.26 L 53.723 36.26 L 53.723 36.26 Q 54.183 35.38 54.813 34.86 L 54.813 34.86 L 54.813 34.86 Q 55.443 34.34 56.303 34.34 L 56.303 34.34 L 56.303 34.34 Q 57.003 34.34 57.483 34.79 L 57.483 34.79 L 57.483 34.79 Q 57.963 35.24 57.963 35.98 L 57.963 35.98 L 57.963 35.98 Q 57.963 37 57.283 37.84 L 57.283 37.84 L 57.283 37.84 Q 56.603 38.68 55.603 39.18 L 55.603 39.18 L 55.603 39.18 Q 56.643 39.98 57.003 40.98 L 57.003 40.98 L 57.003 40.98 Q 58.723 39.68 59.223 38.16 L 59.223 38.16 L 59.443 38.4 L 59.443 38.4 Q 58.943 39.98 57.123 41.36 L 57.123 41.36 L 57.123 41.36 Q 57.203 41.62 57.203 42.02 L 57.203 42.02 L 57.203 42.02 Q 57.203 43.2 56.513 44.37 L 56.513 44.37 L 56.513 44.37 Q 55.823 45.54 54.713 46.27 L 54.713 46.27 L 54.713 46.27 Q 53.603 47 52.423 47 L 52.423 47 Z  M 52.283 46.42 L 52.283 46.42 Q 52.823 46.42 53.663 45.88 L 53.663 45.88 L 53.663 45.88 Q 54.503 45.34 55.183 44.36 L 55.183 44.36 L 55.183 44.36 Q 55.863 43.38 55.983 42.1 L 55.983 42.1 L 55.983 42.1 Q 55.103 42.66 54.663 42.9 L 54.663 42.9 L 54.663 42.9 Q 53.583 43.54 53.013 43.94 L 53.013 43.94 L 53.013 43.94 Q 52.443 44.34 52.053 44.8 L 52.053 44.8 L 52.053 44.8 Q 51.663 45.26 51.663 45.76 L 51.663 45.76 L 51.663 45.76 Q 51.663 46.1 51.833 46.26 L 51.833 46.26 L 51.833 46.26 Q 52.003 46.42 52.283 46.42 L 52.283 46.42 Z  M 61.023 42.28 L 61.023 42.28 Q 59.843 42.28 59.213 41.63 L 59.213 41.63 L 59.213 41.63 Q 58.583 40.98 58.583 39.96 L 58.583 39.96 L 58.583 39.96 Q 58.583 38.78 59.363 37.42 L 59.363 37.42 L 59.363 37.42 Q 60.143 36.06 61.333 35.13 L 61.333 35.13 L 61.333 35.13 Q 62.523 34.2 63.663 34.2 L 63.663 34.2 L 63.663 34.2 Q 64.903 34.2 64.903 35.42 L 64.903 35.42 L 64.903 35.42 Q 64.903 36.4 64.163 37.25 L 64.163 37.25 L 64.163 37.25 Q 63.423 38.1 62.263 38.64 L 62.263 38.64 L 62.263 38.64 Q 61.103 39.18 59.943 39.3 L 59.943 39.3 L 59.943 39.3 Q 59.863 39.64 59.863 40.02 L 59.863 40.02 L 59.863 40.02 Q 59.863 40.74 60.223 41.22 L 60.223 41.22 L 60.223 41.22 Q 60.583 41.7 61.443 41.7 L 61.443 41.7 L 61.443 41.7 Q 62.663 41.7 63.903 40.68 L 63.903 40.68 L 63.903 40.68 Q 65.143 39.66 65.923 38.16 L 65.923 38.16 L 66.163 38.34 L 66.163 38.34 Q 65.363 40.12 63.943 41.2 L 63.943 41.2 L 63.943 41.2 Q 62.523 42.28 61.023 42.28 L 61.023 42.28 Z  M 60.043 38.92 L 60.043 38.92 Q 60.883 38.62 61.803 38.08 L 61.803 38.08 L 61.803 38.08 Q 62.723 37.54 63.373 36.81 L 63.373 36.81 L 63.373 36.81 Q 64.023 36.08 64.023 35.28 L 64.023 35.28 L 64.023 35.28 Q 64.023 35.04 63.933 34.93 L 63.933 34.93 L 63.933 34.93 Q 63.843 34.82 63.603 34.82 L 63.603 34.82 L 63.603 34.82 Q 62.983 34.82 62.253 35.44 L 62.253 35.44 L 62.253 35.44 Q 61.523 36.06 60.913 37.02 L 60.913 37.02 L 60.913 37.02 Q 60.303 37.98 60.043 38.92 L 60.043 38.92 Z  M 88.549 19.14 L 88.549 19.14 Q 87.489 19.14 86.639 18.55 L 86.639 18.55 L 86.639 18.55 Q 85.789 17.96 85.299 16.83 L 85.299 16.83 L 85.299 16.83 Q 84.809 15.7 84.809 14.18 L 84.809 14.18 L 84.809 14.18 Q 84.809 11.68 86.069 9.06 L 86.069 9.06 L 86.069 9.06 Q 87.329 6.44 89.259 4.73 L 89.259 4.73 L 89.259 4.73 Q 91.189 3.02 93.029 3.02 L 93.029 3.02 L 93.029 3.02 Q 94.089 3.02 94.599 3.66 L 94.599 3.66 L 94.599 3.66 Q 95.109 4.3 95.109 5.28 L 95.109 5.28 L 95.109 5.28 Q 95.109 5.98 94.869 6.66 L 94.869 6.66 L 94.869 6.66 Q 94.629 7.34 94.219 7.77 L 94.219 7.77 L 94.219 7.77 Q 93.809 8.2 93.349 8.2 L 93.349 8.2 L 93.349 8.2 Q 92.949 8.2 92.729 7.74 L 92.729 7.74 L 92.729 7.74 Q 93.029 7.54 93.399 7 L 93.399 7 L 93.399 7 Q 93.769 6.46 94.029 5.82 L 94.029 5.82 L 94.029 5.82 Q 94.289 5.18 94.289 4.68 L 94.289 4.68 L 94.289 4.68 Q 94.289 4.2 93.999 3.91 L 93.999 3.91 L 93.999 3.91 Q 93.709 3.62 93.089 3.62 L 93.089 3.62 L 93.089 3.62 Q 91.709 3.62 90.129 5.42 L 90.129 5.42 L 90.129 5.42 Q 88.549 7.22 87.479 9.82 L 87.479 9.82 L 87.479 9.82 Q 86.409 12.42 86.409 14.58 L 86.409 14.58 L 86.409 14.58 Q 86.409 16.36 87.159 17.41 L 87.159 17.41 L 87.159 17.41 Q 87.909 18.46 89.089 18.46 L 89.089 18.46 L 89.089 18.46 Q 90.089 18.46 90.969 17.52 L 90.969 17.52 L 90.969 17.52 Q 91.849 16.58 92.419 15.16 L 92.419 15.16 L 92.419 15.16 Q 92.989 13.74 93.089 12.4 L 93.089 12.4 L 93.089 12.4 Q 91.929 12.14 91.029 12.14 L 91.029 12.14 L 89.809 12.16 L 89.809 12.16 Q 90.049 11.12 91.169 11.12 L 91.169 11.12 L 91.169 11.12 Q 91.649 11.12 92.139 11.26 L 92.139 11.26 L 92.139 11.26 Q 92.629 11.4 93.489 11.7 L 93.489 11.7 L 93.489 11.7 Q 93.989 11.92 94.549 12.06 L 94.549 12.06 L 94.409 12.7 L 94.409 12.7 Q 93.709 14.54 93.449 15.65 L 93.449 15.65 L 93.449 15.65 Q 93.189 16.76 93.189 17.58 L 93.189 17.58 L 93.189 17.58 Q 93.189 17.9 93.229 18.5 L 93.229 18.5 L 93.229 18.5 Q 93.269 18.9 93.269 19.14 L 93.269 19.14 L 93.269 19.14 Q 92.189 18.72 92.189 17.7 L 92.189 17.7 L 92.189 17.7 Q 92.189 17.26 92.329 16.78 L 92.329 16.78 L 92.329 16.78 Q 90.629 19.14 88.549 19.14 L 88.549 19.14 Z  M 99.289 8.76 L 99.289 8.76 Q 98.929 8.76 98.699 8.59 L 98.699 8.59 L 98.699 8.59 Q 98.469 8.42 98.469 8.1 L 98.469 8.1 L 98.469 8.1 Q 98.469 7.7 98.949 7.38 L 98.949 7.38 L 98.949 7.38 Q 99.429 7.06 99.929 7.06 L 99.929 7.06 L 99.929 7.06 Q 100.589 7.06 100.589 7.68 L 100.589 7.68 L 100.589 7.68 Q 100.589 8.06 100.179 8.41 L 100.179 8.41 L 100.179 8.41 Q 99.769 8.76 99.289 8.76 L 99.289 8.76 Z  M 96.889 17.92 L 96.889 17.92 Q 96.149 17.92 95.749 17.45 L 95.749 17.45 L 95.749 17.45 Q 95.349 16.98 95.349 16.24 L 95.349 16.24 L 95.349 16.24 Q 95.349 15.46 95.799 14.08 L 95.799 14.08 L 95.799 14.08 Q 96.249 12.7 96.919 11.66 L 96.919 11.66 L 96.919 11.66 Q 97.589 10.62 98.229 10.62 L 98.229 10.62 L 98.229 10.62 Q 98.409 10.62 98.539 10.74 L 98.539 10.74 L 98.539 10.74 Q 98.669 10.86 98.669 11.06 L 98.669 11.06 L 98.669 11.06 Q 98.669 11.34 98.029 12.4 L 98.029 12.4 L 98.029 12.4 Q 97.369 13.5 96.979 14.37 L 96.979 14.37 L 96.979 14.37 Q 96.589 15.24 96.589 16.02 L 96.589 16.02 L 96.589 16.02 Q 96.589 16.72 96.819 16.97 L 96.819 16.97 L 96.819 16.97 Q 97.049 17.22 97.569 17.22 L 97.569 17.22 L 97.569 17.22 Q 99.129 17.22 100.649 14.16 L 100.649 14.16 L 100.829 14.36 L 100.829 14.36 Q 100.269 16.04 99.179 16.98 L 99.179 16.98 L 99.179 16.98 Q 98.089 17.92 96.889 17.92 L 96.889 17.92 Z  M 101.969 18.32 L 101.969 18.32 Q 100.189 18.32 100.189 16.34 L 100.189 16.34 L 100.189 16.34 Q 100.189 15.48 100.499 14.21 L 100.499 14.21 L 100.499 14.21 Q 100.809 12.94 101.349 11.52 L 101.349 11.52 L 101.349 11.52 Q 100.869 11.44 100.629 11.36 L 100.629 11.36 L 100.629 11 L 100.629 11 Q 101.349 11.08 101.509 11.08 L 101.509 11.08 L 101.509 11.08 Q 102.389 8.8 103.399 7.13 L 103.399 7.13 L 103.399 7.13 Q 104.409 5.46 104.989 5.46 L 104.989 5.46 L 104.989 5.46 Q 105.149 5.46 105.279 5.58 L 105.279 5.58 L 105.279 5.58 Q 105.409 5.7 105.409 5.9 L 105.409 5.9 L 105.409 5.9 Q 105.409 6.16 105.159 6.66 L 105.159 6.66 L 105.159 6.66 Q 104.909 7.16 104.309 8.2 L 104.309 8.2 L 104.309 8.2 Q 104.209 8.4 103.689 9.31 L 103.689 9.31 L 103.689 9.31 Q 103.169 10.22 102.749 11.14 L 102.749 11.14 L 103.489 11.14 L 103.489 11.14 Q 105.149 11.14 106.349 11.02 L 106.349 11.02 L 106.349 11.38 L 106.349 11.38 Q 104.169 11.62 102.829 11.62 L 102.829 11.62 L 102.529 11.62 L 102.529 11.62 Q 101.429 14.14 101.429 15.98 L 101.429 15.98 L 101.429 15.98 Q 101.429 16.84 101.689 17.21 L 101.689 17.21 L 101.689 17.21 Q 101.949 17.58 102.549 17.58 L 102.549 17.58 L 102.549 17.58 Q 103.569 17.58 104.569 16.67 L 104.569 16.67 L 104.569 16.67 Q 105.569 15.76 106.349 14.16 L 106.349 14.16 L 106.609 14.36 L 106.609 14.36 Q 105.869 16.1 104.609 17.21 L 104.609 17.21 L 104.609 17.21 Q 103.349 18.32 101.969 18.32 L 101.969 18.32 Z  M 107.609 14.52 L 107.609 14.52 Q 107.809 13.96 108.789 13.75 L 108.789 13.75 L 108.789 13.75 Q 109.769 13.54 111.389 13.54 L 111.389 13.54 L 111.389 13.54 Q 113.009 13.54 114.749 13.72 L 114.749 13.72 L 114.749 13.72 Q 113.949 14.3 112.689 14.3 L 112.689 14.3 L 110.789 14.3 L 110.789 14.3 Q 109.729 14.3 109.119 14.34 L 109.119 14.34 L 109.119 14.34 Q 108.509 14.38 107.609 14.52 L 107.609 14.52 Z  M 116.229 19.14 L 116.869 17.72 L 116.869 17.72 Q 117.249 16.9 118.949 13.16 L 118.949 13.16 L 118.949 13.16 Q 120.649 9.42 122.569 5.08 L 122.569 5.08 L 122.569 5.08 Q 122.769 4.62 122.769 4.26 L 122.769 4.26 L 122.769 4.26 Q 122.769 4 122.629 3.87 L 122.629 3.87 L 122.629 3.87 Q 122.489 3.74 122.089 3.74 L 122.089 3.74 L 122.089 3.74 Q 121.289 3.74 120.729 4.29 L 120.729 4.29 L 120.729 4.29 Q 120.169 4.84 119.889 5.68 L 119.889 5.68 L 119.889 5.68 Q 119.609 6.52 119.609 7.38 L 119.609 7.38 L 119.609 7.38 Q 119.609 7.64 119.649 8 L 119.649 8 L 119.649 8 Q 119.129 8 118.859 7.48 L 118.859 7.48 L 118.859 7.48 Q 118.589 6.96 118.589 6.36 L 118.589 6.36 L 118.589 6.36 Q 118.589 5.52 119.189 4.74 L 119.189 4.74 L 119.189 4.74 Q 119.789 3.96 120.699 3.48 L 120.699 3.48 L 120.699 3.48 Q 121.609 3 122.489 3 L 122.489 3 L 122.489 3 Q 123.189 3 123.619 3.38 L 123.619 3.38 L 123.619 3.38 Q 124.049 3.76 124.279 4.74 L 124.279 4.74 L 124.279 4.74 Q 124.509 5.72 124.509 7.48 L 124.509 7.48 L 124.509 7.48 Q 124.509 9.1 124.269 12.34 L 124.269 12.34 L 124.269 12.34 Q 124.149 13.88 124.089 15.36 L 124.089 15.36 L 124.089 15.36 Q 124.769 12.74 126.619 9.38 L 126.619 9.38 L 126.619 9.38 Q 128.469 6.02 129.789 4.08 L 129.789 4.08 L 129.789 4.08 Q 130.109 3.6 130.299 3.43 L 130.299 3.43 L 130.299 3.43 Q 130.489 3.26 130.789 3.26 L 130.789 3.26 L 130.789 3.26 Q 131.069 3.26 131.429 3.4 L 131.429 3.4 L 131.429 3.4 Q 130.929 4.6 130.529 6.2 L 130.529 6.2 L 130.529 6.2 Q 129.849 8.84 129.279 12.27 L 129.279 12.27 L 129.279 12.27 Q 128.709 15.7 128.709 17.5 L 128.709 17.5 L 128.709 17.5 Q 128.709 17.98 128.749 18.22 L 128.749 18.22 L 128.749 18.22 Q 128.789 18.46 128.889 18.74 L 128.889 18.74 L 129.009 19.14 L 129.009 19.14 Q 128.329 19.14 127.979 18.92 L 127.979 18.92 L 127.979 18.92 Q 127.629 18.7 127.499 18.24 L 127.499 18.24 L 127.499 18.24 Q 127.369 17.78 127.369 16.9 L 127.369 16.9 L 127.369 16.9 Q 127.369 14.76 127.869 12.34 L 127.869 12.34 L 127.869 12.34 Q 128.369 9.92 129.369 6.12 L 129.369 6.12 L 129.369 6.12 Q 128.489 7.26 127.409 9.39 L 127.409 9.39 L 127.409 9.39 Q 126.329 11.52 125.399 13.74 L 125.399 13.74 L 125.399 13.74 Q 124.469 15.96 124.009 17.34 L 124.009 17.34 L 124.009 17.34 Q 123.789 17.42 123.709 17.42 L 123.709 17.42 L 123.709 17.42 Q 123.209 17.42 123.019 16.83 L 123.019 16.83 L 123.019 16.83 Q 122.829 16.24 122.829 14.98 L 122.829 14.98 L 122.829 14.98 Q 122.829 13.86 122.989 10.66 L 122.989 10.66 L 122.989 10.66 Q 123.149 7.5 123.149 6.48 L 123.149 6.48 L 123.149 6.48 Q 123.149 5.92 123.109 5.36 L 123.109 5.36 L 123.109 5.36 Q 121.669 8.7 120.629 11.28 L 120.629 11.28 L 120.629 11.28 Q 119.249 14.6 118.569 16.1 L 118.569 16.1 L 118.569 16.1 Q 117.889 17.6 117.329 18.37 L 117.329 18.37 L 117.329 18.37 Q 116.769 19.14 116.229 19.14 L 116.229 19.14 Z  M 132.309 18.34 L 132.309 18.34 Q 131.649 18.34 131.239 17.91 L 131.239 17.91 L 131.239 17.91 Q 130.829 17.48 130.829 16.68 L 130.829 16.68 L 130.829 16.68 Q 130.829 15.5 131.679 14.04 L 131.679 14.04 L 131.679 14.04 Q 132.529 12.58 133.829 11.56 L 133.829 11.56 L 133.829 11.56 Q 135.129 10.54 136.369 10.54 L 136.369 10.54 L 136.369 10.54 Q 137.149 10.54 137.669 10.96 L 137.669 10.96 L 137.669 10.96 Q 138.189 11.38 138.189 12.04 L 138.189 12.04 L 138.189 12.04 Q 138.189 12.5 137.929 12.7 L 137.929 12.7 L 137.929 12.7 Q 137.669 12.9 137.209 12.9 L 137.209 12.9 L 137.209 12.9 Q 137.309 12.54 137.309 12.2 L 137.309 12.2 L 137.309 12.2 Q 137.309 11.7 137.069 11.39 L 137.069 11.39 L 137.069 11.39 Q 136.829 11.08 136.329 11.08 L 136.329 11.08 L 136.329 11.08 Q 135.449 11.08 134.479 12.06 L 134.479 12.06 L 134.479 12.06 Q 133.509 13.04 132.859 14.4 L 132.859 14.4 L 132.859 14.4 Q 132.209 15.76 132.209 16.74 L 132.209 16.74 L 132.209 16.74 Q 132.209 17.52 132.749 17.52 L 132.749 17.52 L 132.749 17.52 Q 133.549 17.52 134.629 16.25 L 134.629 16.25 L 134.629 16.25 Q 135.709 14.98 136.949 13.16 L 136.949 13.16 L 136.949 13.16 Q 137.209 13.2 137.479 13.33 L 137.479 13.33 L 137.479 13.33 Q 137.749 13.46 137.749 13.66 L 137.749 13.66 L 137.749 13.66 Q 137.749 13.82 137.559 14.17 L 137.559 14.17 L 137.559 14.17 Q 137.369 14.52 137.329 14.58 L 137.329 14.58 L 137.329 14.58 Q 136.989 15.16 136.789 15.61 L 136.789 15.61 L 136.789 15.61 Q 136.589 16.06 136.589 16.44 L 136.589 16.44 L 136.589 16.44 Q 136.589 16.78 136.759 17.05 L 136.759 17.05 L 136.759 17.05 Q 136.929 17.32 137.269 17.32 L 137.269 17.32 L 137.269 17.32 Q 137.849 17.32 138.729 16.49 L 138.729 16.49 L 138.729 16.49 Q 139.609 15.66 140.469 14.16 L 140.469 14.16 L 140.669 14.36 L 140.669 14.36 Q 140.249 15.42 139.589 16.25 L 139.589 16.25 L 139.589 16.25 Q 138.929 17.08 138.169 17.54 L 138.169 17.54 L 138.169 17.54 Q 137.409 18 136.709 18 L 136.709 18 L 136.709 18 Q 136.009 18 135.639 17.59 L 135.639 17.59 L 135.639 17.59 Q 135.269 17.18 135.269 16.6 L 135.269 16.6 L 135.269 16.6 Q 135.269 16.34 135.329 16.02 L 135.329 16.02 L 135.329 16.02 Q 134.429 17.22 133.719 17.78 L 133.719 17.78 L 133.719 17.78 Q 133.009 18.34 132.309 18.34 L 132.309 18.34 Z  M 138.809 23 L 138.809 23 Q 138.649 23 138.509 22.84 L 138.509 22.84 L 138.509 22.84 Q 138.369 22.68 138.269 22.48 L 138.269 22.48 L 138.269 22.48 Q 138.169 22.28 138.189 22.24 L 138.189 22.24 L 138.189 22.24 Q 138.469 21.28 138.869 20.12 L 138.869 20.12 L 138.869 20.12 Q 139.309 18.84 139.609 17.78 L 139.609 17.78 L 139.609 17.78 Q 139.909 16.72 140.239 14.91 L 140.239 14.91 L 140.239 14.91 Q 140.569 13.1 140.909 10.28 L 140.909 10.28 L 140.909 10.28 Q 140.929 10.08 140.999 10.01 L 140.999 10.01 L 140.999 10.01 Q 141.069 9.94 141.289 9.94 L 141.289 9.94 L 141.289 9.94 Q 141.769 9.94 142.009 10.21 L 142.009 10.21 L 142.009 10.21 Q 142.249 10.48 142.249 10.86 L 142.249 10.86 L 142.249 10.86 Q 142.249 11.42 141.789 13.56 L 141.789 13.56 L 141.789 13.56 Q 142.409 12.36 143.299 11.49 L 143.299 11.49 L 143.299 11.49 Q 144.189 10.62 145.249 10.62 L 145.249 10.62 L 145.249 10.62 Q 146.129 10.62 146.699 11.25 L 146.699 11.25 L 146.699 11.25 Q 147.269 11.88 147.269 12.9 L 147.269 12.9 L 147.269 12.9 Q 147.269 13.96 146.649 15.15 L 146.649 15.15 L 146.649 15.15 Q 146.029 16.34 144.939 17.13 L 144.939 17.13 L 144.939 17.13 Q 143.849 17.92 142.549 17.92 L 142.549 17.92 L 142.549 17.92 Q 142.049 17.92 141.719 17.81 L 141.719 17.81 L 141.719 17.81 Q 141.389 17.7 141.389 17.56 L 141.389 17.56 L 141.389 17.56 Q 141.389 17.5 141.539 17.48 L 141.539 17.48 L 141.539 17.48 Q 141.689 17.46 141.889 17.46 L 141.889 17.46 L 141.889 17.46 Q 142.929 17.46 143.869 16.8 L 143.869 16.8 L 143.869 16.8 Q 144.809 16.14 145.389 15.12 L 145.389 15.12 L 145.389 15.12 Q 145.969 14.1 145.969 13.08 L 145.969 13.08 L 145.969 13.08 Q 145.969 12.4 145.679 11.97 L 145.679 11.97 L 145.679 11.97 Q 145.389 11.54 144.829 11.54 L 144.829 11.54 L 144.829 11.54 Q 144.189 11.54 143.519 12.07 L 143.519 12.07 L 143.519 12.07 Q 142.849 12.6 142.319 13.35 L 142.319 13.35 L 142.319 13.35 Q 141.789 14.1 141.509 14.76 L 141.509 14.76 L 141.509 14.76 Q 140.769 17.92 140.079 20.25 L 140.079 20.25 L 140.079 20.25 Q 139.389 22.58 139.049 22.9 L 139.049 22.9 L 139.049 22.9 Q 138.949 23 138.809 23 L 138.809 23 Z " fill="rgb(255,255,255)"/></g></svg>