<?xml version="1.0" standalone="no"?><!-- Generator: Gravit.io --><svg xmlns="http://www.w3.org/2000/svg" xmlns:xlink="http://www.w3.org/1999/xlink" style="isolation:isolate" viewBox="0 0 308 42" width="308" height="42"><defs><clipPath id="_clipPath_o5xQK3yvKKDhLoioqcUtq795xiUJnLEJ"><rect width="308" height="42"/></clipPath></defs><g clip-path="url(#_clipPath_o5xQK3yvKKDhLoioqcUtq795xiUJnLEJ)"><rect x="0" y="0" width="308" height="67" transform="matrix(1,0,0,1,0,0)" fill="none"/><path d=" M 199.9 13.38 L 199.9 13.38 Q 199.18 13.42 198.85 13.54 L 198.85 13.54 L 198.85 13.54 Q 198.52 13.66 198.4 14 L 198.4 14 L 198.4 14 Q 198.28 14.34 198.28 15.1 L 198.28 15.1 L 198.28 23.02 L 198.28 23.02 Q 198.28 23.78 198.4 24.12 L 198.4 24.12 L 198.4 24.12 Q 198.52 24.46 198.85 24.58 L 198.85 24.58 L 198.85 24.58 Q 199.18 24.7 199.9 24.74 L 199.9 24.74 L 199.9 25.14 L 199.9 25.14 Q 198.98 25.08 197.36 25.08 L 197.36 25.08 L 197.36 25.08 Q 195.64 25.08 194.8 25.14 L 194.8 25.14 L 194.8 24.74 L 194.8 24.74 Q 195.52 24.7 195.85 24.58 L 195.85 24.58 L 195.85 24.58 Q 196.18 24.46 196.3 24.12 L 196.3 24.12 L 196.3 24.12 Q 196.42 23.78 196.42 23.02 L 196.42 23.02 L 196.42 14.24 L 191.6 25.24 L 191.28 25.24 L 186.64 14.26 L 186.64 22.82 L 186.64 22.82 Q 186.64 23.6 186.77 23.98 L 186.77 23.98 L 186.77 23.98 Q 186.9 24.36 187.28 24.53 L 187.28 24.53 L 187.28 24.53 Q 187.66 24.7 188.46 24.74 L 188.46 24.74 L 188.46 25.14 L 188.46 25.14 Q 187.74 25.08 186.42 25.08 L 186.42 25.08 L 186.42 25.08 Q 185.22 25.08 184.56 25.14 L 184.56 25.14 L 184.56 24.74 L 184.56 24.74 Q 185.26 24.7 185.6 24.53 L 185.6 24.53 L 185.6 24.53 Q 185.94 24.36 186.06 23.97 L 186.06 23.97 L 186.06 23.97 Q 186.18 23.58 186.18 22.82 L 186.18 22.82 L 186.18 15.1 L 186.18 15.1 Q 186.18 14.34 186.06 14 L 186.06 14 L 186.06 14 Q 185.94 13.66 185.61 13.54 L 185.61 13.54 L 185.61 13.54 Q 185.28 13.42 184.56 13.38 L 184.56 13.38 L 184.56 12.98 L 184.56 12.98 Q 185.22 13.04 186.42 13.04 L 186.42 13.04 L 186.42 13.04 Q 187.38 13.04 188.12 12.98 L 188.12 12.98 L 192.14 22.72 L 196.42 13.04 L 197.36 13.04 L 197.36 13.04 Q 198.98 13.04 199.9 12.98 L 199.9 12.98 L 199.9 13.38 L 199.9 13.38 Z  M 211.74 23.46 L 211.74 23.46 Q 212.28 24.7 213.12 24.74 L 213.12 24.74 L 213.12 25.14 L 213.12 25.14 Q 212.32 25.08 210.98 25.08 L 210.98 25.08 L 210.98 25.08 Q 209.26 25.08 208.42 25.14 L 208.42 25.14 L 208.42 24.74 L 208.42 24.74 Q 209.16 24.7 209.51 24.54 L 209.51 24.54 L 209.51 24.54 Q 209.86 24.38 209.86 24 L 209.86 24 L 209.86 24 Q 209.86 23.68 209.58 23.06 L 209.58 23.06 L 208.56 20.78 L 203.7 20.78 L 203.02 22.28 L 203.02 22.28 Q 202.68 23.06 202.68 23.56 L 202.68 23.56 L 202.68 23.56 Q 202.68 24.08 203.05 24.37 L 203.05 24.37 L 203.05 24.37 Q 203.42 24.66 204.24 24.74 L 204.24 24.74 L 204.24 25.14 L 204.24 25.14 Q 203.64 25.08 202.42 25.08 L 202.42 25.08 L 202.42 25.08 Q 201.2 25.08 200.68 25.14 L 200.68 25.14 L 200.68 24.74 L 200.68 24.74 Q 201.22 24.6 201.6 24.13 L 201.6 24.13 L 201.6 24.13 Q 201.98 23.66 202.32 22.88 L 202.32 22.88 L 206.74 12.88 L 207.06 12.88 L 211.74 23.46 L 211.74 23.46 Z  M 203.86 20.38 L 208.4 20.38 L 206.14 15.3 L 203.86 20.38 L 203.86 20.38 Z  M 225.42 24.04 L 225.7 24.3 L 225.7 24.3 Q 225.32 24.84 224.83 25.13 L 224.83 25.13 L 224.83 25.13 Q 224.34 25.42 223.66 25.42 L 223.66 25.42 L 223.66 25.42 Q 221.98 25.42 221.6 23.9 L 221.6 23.9 L 220.98 21.4 L 220.98 21.4 Q 220.7 20.28 220.15 19.9 L 220.15 19.9 L 220.15 19.9 Q 219.6 19.52 218.52 19.52 L 218.52 19.52 L 217.38 19.52 L 217.38 23.02 L 217.38 23.02 Q 217.38 23.78 217.5 24.12 L 217.5 24.12 L 217.5 24.12 Q 217.62 24.46 217.95 24.58 L 217.95 24.58 L 217.95 24.58 Q 218.28 24.7 219 24.74 L 219 24.74 L 219 25.14 L 219 25.14 Q 218.08 25.08 216.46 25.08 L 216.46 25.08 L 216.46 25.08 Q 214.74 25.08 213.9 25.14 L 213.9 25.14 L 213.9 24.74 L 213.9 24.74 Q 214.62 24.7 214.95 24.58 L 214.95 24.58 L 214.95 24.58 Q 215.28 24.46 215.4 24.12 L 215.4 24.12 L 215.4 24.12 Q 215.52 23.78 215.52 23.02 L 215.52 23.02 L 215.52 15.1 L 215.52 15.1 Q 215.52 14.34 215.4 14 L 215.4 14 L 215.4 14 Q 215.28 13.66 214.95 13.54 L 214.95 13.54 L 214.95 13.54 Q 214.62 13.42 213.9 13.38 L 213.9 13.38 L 213.9 12.98 L 213.9 12.98 Q 214.74 13.04 216.34 13.04 L 216.34 13.04 L 218.38 13.02 L 218.38 13.02 Q 218.72 13 219.16 13 L 219.16 13 L 219.16 13 Q 221.4 13 222.59 13.84 L 222.59 13.84 L 222.59 13.84 Q 223.78 14.68 223.78 16.02 L 223.78 16.02 L 223.78 16.02 Q 223.78 17.18 222.85 18.14 L 222.85 18.14 L 222.85 18.14 Q 221.92 19.1 219.8 19.36 L 219.8 19.36 L 219.8 19.36 Q 220.2 19.4 220.48 19.44 L 220.48 19.44 L 220.48 19.44 Q 221.54 19.6 222.16 20.08 L 222.16 20.08 L 222.16 20.08 Q 222.78 20.56 223.04 21.62 L 223.04 21.62 L 223.48 23.44 L 223.48 23.44 Q 223.64 24.14 223.83 24.43 L 223.83 24.43 L 223.83 24.43 Q 224.02 24.72 224.32 24.72 L 224.32 24.72 L 224.32 24.72 Q 224.82 24.72 225.42 24.04 L 225.42 24.04 L 225.42 24.04 Z  M 218.66 13.38 L 218.66 13.38 Q 218.12 13.38 217.85 13.52 L 217.85 13.52 L 217.85 13.52 Q 217.58 13.66 217.48 14.02 L 217.48 14.02 L 217.48 14.02 Q 217.38 14.38 217.38 15.1 L 217.38 15.1 L 217.38 19.12 L 218.72 19.12 L 218.72 19.12 Q 220.48 19.12 221.13 18.37 L 221.13 18.37 L 221.13 18.37 Q 221.78 17.62 221.78 16.24 L 221.78 16.24 L 221.78 16.24 Q 221.78 14.8 221.05 14.09 L 221.05 14.09 L 221.05 14.09 Q 220.32 13.38 218.66 13.38 L 218.66 13.38 L 218.66 13.38 Z  M 236.86 23.52 L 236.86 23.52 Q 237.56 24.4 238.42 24.74 L 238.42 24.74 L 238.42 25.14 L 238.42 25.14 Q 237.46 25.08 236.18 25.08 L 236.18 25.08 L 236.18 25.08 Q 234.82 25.08 233.64 25.14 L 233.64 25.14 L 233.64 24.74 L 233.64 24.74 Q 234.28 24.72 234.56 24.63 L 234.56 24.63 L 234.56 24.63 Q 234.84 24.54 234.84 24.36 L 234.84 24.36 L 234.84 24.36 Q 234.84 24.16 234.58 23.84 L 234.58 23.84 L 231.92 20.14 L 231.92 20.14 Q 231.52 19.58 231.08 19.33 L 231.08 19.33 L 231.08 19.33 Q 230.64 19.08 229.86 19.06 L 229.86 19.06 L 229.86 23.02 L 229.86 23.02 Q 229.86 23.78 229.98 24.12 L 229.98 24.12 L 229.98 24.12 Q 230.1 24.46 230.43 24.58 L 230.43 24.58 L 230.43 24.58 Q 230.76 24.7 231.48 24.74 L 231.48 24.74 L 231.48 25.14 L 231.48 25.14 Q 230.56 25.08 228.94 25.08 L 228.94 25.08 L 228.94 25.08 Q 227.22 25.08 226.38 25.14 L 226.38 25.14 L 226.38 24.74 L 226.38 24.74 Q 227.1 24.7 227.43 24.58 L 227.43 24.58 L 227.43 24.58 Q 227.76 24.46 227.88 24.12 L 227.88 24.12 L 227.88 24.12 Q 228 23.78 228 23.02 L 228 23.02 L 228 15.1 L 228 15.1 Q 228 14.34 227.88 14 L 227.88 14 L 227.88 14 Q 227.76 13.66 227.43 13.54 L 227.43 13.54 L 227.43 13.54 Q 227.1 13.42 226.38 13.38 L 226.38 13.38 L 226.38 12.98 L 226.38 12.98 Q 227.22 13.04 228.94 13.04 L 228.94 13.04 L 228.94 13.04 Q 230.54 13.04 231.48 12.98 L 231.48 12.98 L 231.48 13.38 L 231.48 13.38 Q 230.76 13.42 230.43 13.54 L 230.43 13.54 L 230.43 13.54 Q 230.1 13.66 229.98 14 L 229.98 14 L 229.98 14 Q 229.86 14.34 229.86 15.1 L 229.86 15.1 L 229.86 18.72 L 229.86 18.72 Q 230.56 18.68 231.18 18.39 L 231.18 18.39 L 231.18 18.39 Q 231.8 18.1 232.54 17.38 L 232.54 17.38 L 234.92 14.94 L 234.92 14.94 Q 235.44 14.46 235.44 14.04 L 235.44 14.04 L 235.44 14.04 Q 235.44 13.74 235.14 13.56 L 235.14 13.56 L 235.14 13.56 Q 234.84 13.38 234.26 13.36 L 234.26 13.36 L 234.26 12.98 L 234.26 12.98 Q 235.34 13.04 236.62 13.04 L 236.62 13.04 L 236.62 13.04 Q 237.48 13.04 238.04 12.98 L 238.04 12.98 L 238.04 13.36 L 238.04 13.36 Q 237.32 13.5 236.84 13.78 L 236.84 13.78 L 236.84 13.78 Q 236.36 14.06 235.6 14.8 L 235.6 14.8 L 232.46 17.94 L 236.86 23.52 L 236.86 23.52 Z  M 244.92 12.98 L 244.92 12.98 Q 248.04 12.98 249.61 14.49 L 249.61 14.49 L 249.61 14.49 Q 251.18 16 251.18 18.9 L 251.18 18.9 L 251.18 18.9 Q 251.18 20.78 250.42 22.19 L 250.42 22.19 L 250.42 22.19 Q 249.66 23.6 248.21 24.37 L 248.21 24.37 L 248.21 24.37 Q 246.76 25.14 244.74 25.14 L 244.74 25.14 L 243.58 25.12 L 243.58 25.12 Q 242.46 25.08 241.94 25.08 L 241.94 25.08 L 241.94 25.08 Q 240.3 25.08 239.46 25.14 L 239.46 25.14 L 239.46 24.74 L 239.46 24.74 Q 240.18 24.7 240.51 24.58 L 240.51 24.58 L 240.51 24.58 Q 240.84 24.46 240.96 24.12 L 240.96 24.12 L 240.96 24.12 Q 241.08 23.78 241.08 23.02 L 241.08 23.02 L 241.08 15.1 L 241.08 15.1 Q 241.08 14.34 240.96 14 L 240.96 14 L 240.96 14 Q 240.84 13.66 240.51 13.54 L 240.51 13.54 L 240.51 13.54 Q 240.18 13.42 239.46 13.38 L 239.46 13.38 L 239.46 12.98 L 239.46 12.98 Q 240.16 13.04 241.4 13.04 L 241.4 13.04 L 243.1 13.02 L 243.1 13.02 Q 244.46 12.98 244.92 12.98 L 244.92 12.98 L 244.92 12.98 Z  M 244.42 13.34 L 244.42 13.34 Q 243.8 13.34 243.49 13.48 L 243.49 13.48 L 243.49 13.48 Q 243.18 13.62 243.06 13.98 L 243.06 13.98 L 243.06 13.98 Q 242.94 14.34 242.94 15.06 L 242.94 15.06 L 242.94 23.06 L 242.94 23.06 Q 242.94 23.78 243.06 24.14 L 243.06 24.14 L 243.06 24.14 Q 243.18 24.5 243.49 24.64 L 243.49 24.64 L 243.49 24.64 Q 243.8 24.78 244.44 24.78 L 244.44 24.78 L 244.44 24.78 Q 246.26 24.78 247.3 24.13 L 247.3 24.13 L 247.3 24.13 Q 248.34 23.48 248.76 22.22 L 248.76 22.22 L 248.76 22.22 Q 249.18 20.96 249.18 18.98 L 249.18 18.98 L 249.18 18.98 Q 249.18 16.06 248.1 14.7 L 248.1 14.7 L 248.1 14.7 Q 247.02 13.34 244.42 13.34 L 244.42 13.34 L 244.42 13.34 Z  M 259.5 12.7 L 259.5 12.7 Q 261.34 12.7 262.73 13.43 L 262.73 13.43 L 262.73 13.43 Q 264.12 14.16 264.88 15.57 L 264.88 15.57 L 264.88 15.57 Q 265.64 16.98 265.64 18.94 L 265.64 18.94 L 265.64 18.94 Q 265.64 20.86 264.85 22.33 L 264.85 22.33 L 264.85 22.33 Q 264.06 23.8 262.66 24.61 L 262.66 24.61 L 262.66 24.61 Q 261.26 25.42 259.48 25.42 L 259.48 25.42 L 259.48 25.42 Q 257.64 25.42 256.25 24.69 L 256.25 24.69 L 256.25 24.69 Q 254.86 23.96 254.1 22.55 L 254.1 22.55 L 254.1 22.55 Q 253.34 21.14 253.34 19.18 L 253.34 19.18 L 253.34 19.18 Q 253.34 17.26 254.13 15.79 L 254.13 15.79 L 254.13 15.79 Q 254.92 14.32 256.32 13.51 L 256.32 13.51 L 256.32 13.51 Q 257.72 12.7 259.5 12.7 L 259.5 12.7 L 259.5 12.7 Z  M 259.42 13.06 L 259.42 13.06 Q 258.2 13.06 257.27 13.83 L 257.27 13.83 L 257.27 13.83 Q 256.34 14.6 255.84 15.97 L 255.84 15.97 L 255.84 15.97 Q 255.34 17.34 255.34 19.1 L 255.34 19.1 L 255.34 19.1 Q 255.34 20.88 255.9 22.24 L 255.9 22.24 L 255.9 22.24 Q 256.46 23.6 257.42 24.33 L 257.42 24.33 L 257.42 24.33 Q 258.38 25.06 259.56 25.06 L 259.56 25.06 L 259.56 25.06 Q 260.78 25.06 261.71 24.29 L 261.71 24.29 L 261.71 24.29 Q 262.64 23.52 263.14 22.15 L 263.14 22.15 L 263.14 22.15 Q 263.64 20.78 263.64 19.02 L 263.64 19.02 L 263.64 19.02 Q 263.64 17.24 263.08 15.88 L 263.08 15.88 L 263.08 15.88 Q 262.52 14.52 261.56 13.79 L 261.56 13.79 L 261.56 13.79 Q 260.6 13.06 259.42 13.06 L 259.42 13.06 L 259.42 13.06 Z  M 282.14 13.04 L 282.14 13.04 Q 283.4 13.04 283.88 12.98 L 283.88 12.98 L 283.88 13.38 L 283.88 13.38 Q 283.34 13.5 282.96 13.95 L 282.96 13.95 L 282.96 13.95 Q 282.58 14.4 282.26 15.36 L 282.26 15.36 L 278.82 25.24 L 278.5 25.24 L 275.42 17.62 L 272.16 25.24 L 271.84 25.24 L 267.76 14.66 L 267.76 14.66 Q 267.28 13.42 266.38 13.38 L 266.38 13.38 L 266.38 12.98 L 266.38 12.98 Q 267.18 13.04 268.52 13.04 L 268.52 13.04 L 268.52 13.04 Q 270.24 13.04 271.08 12.98 L 271.08 12.98 L 271.08 13.38 L 271.08 13.38 Q 270.32 13.42 270.01 13.57 L 270.01 13.57 L 270.01 13.57 Q 269.7 13.72 269.7 14.1 L 269.7 14.1 L 269.7 14.1 Q 269.7 14.4 269.92 15.06 L 269.92 15.06 L 272.76 22.8 L 275.18 17.06 L 274.22 14.66 L 274.22 14.66 Q 273.7 13.42 272.84 13.38 L 272.84 13.38 L 272.84 12.98 L 272.84 12.98 Q 273.66 13.04 274.98 13.04 L 274.98 13.04 L 274.98 13.04 Q 276.7 13.04 277.54 12.98 L 277.54 12.98 L 277.54 13.38 L 277.54 13.38 Q 276.78 13.42 276.46 13.57 L 276.46 13.57 L 276.46 13.57 Q 276.14 13.72 276.14 14.12 L 276.14 14.12 L 276.14 14.12 Q 276.14 14.46 276.38 15.06 L 276.38 15.06 L 279.28 22.66 L 281.42 16.4 L 281.42 16.4 Q 281.8 15.28 281.8 14.64 L 281.8 14.64 L 281.8 14.64 Q 281.8 13.98 281.43 13.7 L 281.43 13.7 L 281.43 13.7 Q 281.06 13.42 280.32 13.38 L 280.32 13.38 L 280.32 12.98 L 280.32 12.98 Q 280.92 13.04 282.14 13.04 L 282.14 13.04 L 282.14 13.04 Z  M 296.94 12.98 L 296.94 13.38 L 296.94 13.38 Q 296.24 13.42 295.9 13.59 L 295.9 13.59 L 295.9 13.59 Q 295.56 13.76 295.44 14.15 L 295.44 14.15 L 295.44 14.15 Q 295.32 14.54 295.32 15.3 L 295.32 15.3 L 295.32 25.24 L 294.86 25.24 L 286.86 14.16 L 286.86 22.82 L 286.86 22.82 Q 286.86 23.6 286.99 23.98 L 286.99 23.98 L 286.99 23.98 Q 287.12 24.36 287.5 24.53 L 287.5 24.53 L 287.5 24.53 Q 287.88 24.7 288.68 24.74 L 288.68 24.74 L 288.68 25.14 L 288.68 25.14 Q 287.96 25.08 286.64 25.08 L 286.64 25.08 L 286.64 25.08 Q 285.44 25.08 284.78 25.14 L 284.78 25.14 L 284.78 24.74 L 284.78 24.74 Q 285.48 24.7 285.82 24.53 L 285.82 24.53 L 285.82 24.53 Q 286.16 24.36 286.28 23.97 L 286.28 23.97 L 286.28 23.97 Q 286.4 23.58 286.4 22.82 L 286.4 22.82 L 286.4 15.1 L 286.4 15.1 Q 286.4 14.34 286.28 14 L 286.28 14 L 286.28 14 Q 286.16 13.66 285.83 13.54 L 285.83 13.54 L 285.83 13.54 Q 285.5 13.42 284.78 13.38 L 284.78 13.38 L 284.78 12.98 L 284.78 12.98 Q 285.44 13.04 286.64 13.04 L 286.64 13.04 L 286.64 13.04 Q 287.72 13.04 288.48 12.98 L 288.48 12.98 L 294.86 21.86 L 294.86 15.3 L 294.86 15.3 Q 294.86 14.52 294.73 14.14 L 294.73 14.14 L 294.73 14.14 Q 294.6 13.76 294.22 13.59 L 294.22 13.59 L 294.22 13.59 Q 293.84 13.42 293.04 13.38 L 293.04 13.38 L 293.04 12.98 L 293.04 12.98 Q 293.76 13.04 295.08 13.04 L 295.08 13.04 L 295.08 13.04 Q 296.28 13.04 296.94 12.98 L 296.94 12.98 L 296.94 12.98 Z  M 163.64 12.98 L 163.64 12.98 Q 163.5 14.3 163.5 15.34 L 163.5 15.34 L 163.5 15.34 Q 163.5 16.38 163.56 16.98 L 163.56 16.98 L 163.1 16.98 L 163.1 16.98 Q 162.98 15.58 162.72 14.84 L 162.72 14.84 L 162.72 14.84 Q 162.46 14.1 161.88 13.77 L 161.88 13.77 L 161.88 13.77 Q 161.3 13.44 160.22 13.44 L 160.22 13.44 L 158.94 13.44 L 158.94 22.82 L 158.94 22.82 Q 158.94 23.66 159.1 24.04 L 159.1 24.04 L 159.1 24.04 Q 159.26 24.42 159.66 24.56 L 159.66 24.56 L 159.66 24.56 Q 160.06 24.7 160.96 24.74 L 160.96 24.74 L 160.96 25.14 L 160.96 25.14 Q 159.92 25.08 158.02 25.08 L 158.02 25.08 L 158.02 25.08 Q 156.02 25.08 155.06 25.14 L 155.06 25.14 L 155.06 24.74 L 155.06 24.74 Q 155.96 24.7 156.36 24.56 L 156.36 24.56 L 156.36 24.56 Q 156.76 24.42 156.92 24.04 L 156.92 24.04 L 156.92 24.04 Q 157.08 23.66 157.08 22.82 L 157.08 22.82 L 157.08 13.44 L 155.8 13.44 L 155.8 13.44 Q 154.72 13.44 154.14 13.77 L 154.14 13.77 L 154.14 13.77 Q 153.56 14.1 153.3 14.84 L 153.3 14.84 L 153.3 14.84 Q 153.04 15.58 152.92 16.98 L 152.92 16.98 L 152.46 16.98 L 152.46 16.98 Q 152.52 16.34 152.52 15.34 L 152.52 15.34 L 152.52 15.34 Q 152.52 14.3 152.38 12.98 L 152.38 12.98 L 152.38 12.98 Q 154.04 13.04 158.02 13.04 L 158.02 13.04 L 158.02 13.04 Q 161.98 13.04 163.64 12.98 L 163.64 12.98 L 163.64 12.98 Z  M 171.54 12.7 L 171.54 12.7 Q 173.38 12.7 174.77 13.43 L 174.77 13.43 L 174.77 13.43 Q 176.16 14.16 176.92 15.57 L 176.92 15.57 L 176.92 15.57 Q 177.68 16.98 177.68 18.94 L 177.68 18.94 L 177.68 18.94 Q 177.68 20.86 176.89 22.33 L 176.89 22.33 L 176.89 22.33 Q 176.1 23.8 174.7 24.61 L 174.7 24.61 L 174.7 24.61 Q 173.3 25.42 171.52 25.42 L 171.52 25.42 L 171.52 25.42 Q 169.68 25.42 168.29 24.69 L 168.29 24.69 L 168.29 24.69 Q 166.9 23.96 166.14 22.55 L 166.14 22.55 L 166.14 22.55 Q 165.38 21.14 165.38 19.18 L 165.38 19.18 L 165.38 19.18 Q 165.38 17.26 166.17 15.79 L 166.17 15.79 L 166.17 15.79 Q 166.96 14.32 168.36 13.51 L 168.36 13.51 L 168.36 13.51 Q 169.76 12.7 171.54 12.7 L 171.54 12.7 L 171.54 12.7 Z  M 171.46 13.06 L 171.46 13.06 Q 170.24 13.06 169.31 13.83 L 169.31 13.83 L 169.31 13.83 Q 168.38 14.6 167.88 15.97 L 167.88 15.97 L 167.88 15.97 Q 167.38 17.34 167.38 19.1 L 167.38 19.1 L 167.38 19.1 Q 167.38 20.88 167.94 22.24 L 167.94 22.24 L 167.94 22.24 Q 168.5 23.6 169.46 24.33 L 169.46 24.33 L 169.46 24.33 Q 170.42 25.06 171.6 25.06 L 171.6 25.06 L 171.6 25.06 Q 172.82 25.06 173.75 24.29 L 173.75 24.29 L 173.75 24.29 Q 174.68 23.52 175.18 22.15 L 175.18 22.15 L 175.18 22.15 Q 175.68 20.78 175.68 19.02 L 175.68 19.02 L 175.68 19.02 Q 175.68 17.24 175.12 15.88 L 175.12 15.88 L 175.12 15.88 Q 174.56 14.52 173.6 13.79 L 173.6 13.79 L 173.6 13.79 Q 172.64 13.06 171.46 13.06 L 171.46 13.06 L 171.46 13.06 Z  M 96.62 12.98 L 96.62 13.38 L 96.62 13.38 Q 95.92 13.42 95.58 13.59 L 95.58 13.59 L 95.58 13.59 Q 95.24 13.76 95.12 14.15 L 95.12 14.15 L 95.12 14.15 Q 95 14.54 95 15.3 L 95 15.3 L 95 25.24 L 94.54 25.24 L 86.54 14.16 L 86.54 22.82 L 86.54 22.82 Q 86.54 23.6 86.67 23.98 L 86.67 23.98 L 86.67 23.98 Q 86.8 24.36 87.18 24.53 L 87.18 24.53 L 87.18 24.53 Q 87.56 24.7 88.36 24.74 L 88.36 24.74 L 88.36 25.14 L 88.36 25.14 Q 87.64 25.08 86.32 25.08 L 86.32 25.08 L 86.32 25.08 Q 85.12 25.08 84.46 25.14 L 84.46 25.14 L 84.46 24.74 L 84.46 24.74 Q 85.16 24.7 85.5 24.53 L 85.5 24.53 L 85.5 24.53 Q 85.84 24.36 85.96 23.97 L 85.96 23.97 L 85.96 23.97 Q 86.08 23.58 86.08 22.82 L 86.08 22.82 L 86.08 15.1 L 86.08 15.1 Q 86.08 14.34 85.96 14 L 85.96 14 L 85.96 14 Q 85.84 13.66 85.51 13.54 L 85.51 13.54 L 85.51 13.54 Q 85.18 13.42 84.46 13.38 L 84.46 13.38 L 84.46 12.98 L 84.46 12.98 Q 85.12 13.04 86.32 13.04 L 86.32 13.04 L 86.32 13.04 Q 87.4 13.04 88.16 12.98 L 88.16 12.98 L 94.54 21.86 L 94.54 15.3 L 94.54 15.3 Q 94.54 14.52 94.41 14.14 L 94.41 14.14 L 94.41 14.14 Q 94.28 13.76 93.9 13.59 L 93.9 13.59 L 93.9 13.59 Q 93.52 13.42 92.72 13.38 L 92.72 13.38 L 92.72 12.98 L 92.72 12.98 Q 93.44 13.04 94.76 13.04 L 94.76 13.04 L 94.76 13.04 Q 95.96 13.04 96.62 12.98 L 96.62 12.98 L 96.62 12.98 Z  M 104.3 12.7 L 104.3 12.7 Q 106.14 12.7 107.53 13.43 L 107.53 13.43 L 107.53 13.43 Q 108.92 14.16 109.68 15.57 L 109.68 15.57 L 109.68 15.57 Q 110.44 16.98 110.44 18.94 L 110.44 18.94 L 110.44 18.94 Q 110.44 20.86 109.65 22.33 L 109.65 22.33 L 109.65 22.33 Q 108.86 23.8 107.46 24.61 L 107.46 24.61 L 107.46 24.61 Q 106.06 25.42 104.28 25.42 L 104.28 25.42 L 104.28 25.42 Q 102.44 25.42 101.05 24.69 L 101.05 24.69 L 101.05 24.69 Q 99.66 23.96 98.9 22.55 L 98.9 22.55 L 98.9 22.55 Q 98.14 21.14 98.14 19.18 L 98.14 19.18 L 98.14 19.18 Q 98.14 17.26 98.93 15.79 L 98.93 15.79 L 98.93 15.79 Q 99.72 14.32 101.12 13.51 L 101.12 13.51 L 101.12 13.51 Q 102.52 12.7 104.3 12.7 L 104.3 12.7 L 104.3 12.7 Z  M 104.22 13.06 L 104.22 13.06 Q 103 13.06 102.07 13.83 L 102.07 13.83 L 102.07 13.83 Q 101.14 14.6 100.64 15.97 L 100.64 15.97 L 100.64 15.97 Q 100.14 17.34 100.14 19.1 L 100.14 19.1 L 100.14 19.1 Q 100.14 20.88 100.7 22.24 L 100.7 22.24 L 100.7 22.24 Q 101.26 23.6 102.22 24.33 L 102.22 24.33 L 102.22 24.33 Q 103.18 25.06 104.36 25.06 L 104.36 25.06 L 104.36 25.06 Q 105.58 25.06 106.51 24.29 L 106.51 24.29 L 106.51 24.29 Q 107.44 23.52 107.94 22.15 L 107.94 22.15 L 107.94 22.15 Q 108.44 20.78 108.44 19.02 L 108.44 19.02 L 108.44 19.02 Q 108.44 17.24 107.88 15.88 L 107.88 15.88 L 107.88 15.88 Q 107.32 14.52 106.36 13.79 L 106.36 13.79 L 106.36 13.79 Q 105.4 13.06 104.22 13.06 L 104.22 13.06 L 104.22 13.06 Z  M 123.44 12.98 L 123.44 12.98 Q 123.3 14.3 123.3 15.34 L 123.3 15.34 L 123.3 15.34 Q 123.3 16.38 123.36 16.98 L 123.36 16.98 L 122.9 16.98 L 122.9 16.98 Q 122.78 15.58 122.52 14.84 L 122.52 14.84 L 122.52 14.84 Q 122.26 14.1 121.68 13.77 L 121.68 13.77 L 121.68 13.77 Q 121.1 13.44 120.02 13.44 L 120.02 13.44 L 118.74 13.44 L 118.74 22.82 L 118.74 22.82 Q 118.74 23.66 118.9 24.04 L 118.9 24.04 L 118.9 24.04 Q 119.06 24.42 119.46 24.56 L 119.46 24.56 L 119.46 24.56 Q 119.86 24.7 120.76 24.74 L 120.76 24.74 L 120.76 25.14 L 120.76 25.14 Q 119.72 25.08 117.82 25.08 L 117.82 25.08 L 117.82 25.08 Q 115.82 25.08 114.86 25.14 L 114.86 25.14 L 114.86 24.74 L 114.86 24.74 Q 115.76 24.7 116.16 24.56 L 116.16 24.56 L 116.16 24.56 Q 116.56 24.42 116.72 24.04 L 116.72 24.04 L 116.72 24.04 Q 116.88 23.66 116.88 22.82 L 116.88 22.82 L 116.88 13.44 L 115.6 13.44 L 115.6 13.44 Q 114.52 13.44 113.94 13.77 L 113.94 13.77 L 113.94 13.77 Q 113.36 14.1 113.1 14.84 L 113.1 14.84 L 113.1 14.84 Q 112.84 15.58 112.72 16.98 L 112.72 16.98 L 112.26 16.98 L 112.26 16.98 Q 112.32 16.34 112.32 15.34 L 112.32 15.34 L 112.32 15.34 Q 112.32 14.3 112.18 12.98 L 112.18 12.98 L 112.18 12.98 Q 113.84 13.04 117.82 13.04 L 117.82 13.04 L 117.82 13.04 Q 121.78 13.04 123.44 12.98 L 123.44 12.98 L 123.44 12.98 Z  M 134.8 22.78 L 134.8 22.78 Q 134.8 23.82 134.94 25.14 L 134.94 25.14 L 134.94 25.14 Q 133.64 25.08 130.56 25.08 L 130.56 25.08 L 130.56 25.08 Q 126.86 25.08 124.96 25.14 L 124.96 25.14 L 124.96 24.74 L 124.96 24.74 Q 125.68 24.7 126.01 24.58 L 126.01 24.58 L 126.01 24.58 Q 126.34 24.46 126.46 24.12 L 126.46 24.12 L 126.46 24.12 Q 126.58 23.78 126.58 23.02 L 126.58 23.02 L 126.58 15.1 L 126.58 15.1 Q 126.58 14.34 126.46 14 L 126.46 14 L 126.46 14 Q 126.34 13.66 126.01 13.54 L 126.01 13.54 L 126.01 13.54 Q 125.68 13.42 124.96 13.38 L 124.96 13.38 L 124.96 12.98 L 124.96 12.98 Q 126.86 13.04 130.56 13.04 L 130.56 13.04 L 130.56 13.04 Q 133.36 13.04 134.54 12.98 L 134.54 12.98 L 134.54 12.98 Q 134.4 14.18 134.4 15.14 L 134.4 15.14 L 134.4 15.14 Q 134.4 15.92 134.46 16.38 L 134.46 16.38 L 134 16.38 L 134 16.38 Q 133.86 14.74 133.31 14.09 L 133.31 14.09 L 133.31 14.09 Q 132.76 13.44 131.52 13.44 L 131.52 13.44 L 130.06 13.44 L 130.06 13.44 Q 129.34 13.44 129.01 13.55 L 129.01 13.55 L 129.01 13.55 Q 128.68 13.66 128.56 14 L 128.56 14 L 128.56 14 Q 128.44 14.34 128.44 15.1 L 128.44 15.1 L 128.44 18.82 L 130.1 18.82 L 130.1 18.82 Q 130.74 18.82 131.08 18.49 L 131.08 18.49 L 131.08 18.49 Q 131.42 18.16 131.54 17.77 L 131.54 17.77 L 131.54 17.77 Q 131.66 17.38 131.76 16.78 L 131.76 16.78 L 132.22 16.78 L 132.22 16.78 Q 132.16 17.46 132.16 18.26 L 132.16 18.26 L 132.16 19.02 L 132.16 19.02 Q 132.16 19.8 132.28 21.26 L 132.28 21.26 L 131.82 21.26 L 131.82 21.26 Q 131.7 20.3 131.36 19.76 L 131.36 19.76 L 131.36 19.76 Q 131.02 19.22 130.1 19.22 L 130.1 19.22 L 128.44 19.22 L 128.44 23.02 L 128.44 23.02 Q 128.44 23.78 128.56 24.12 L 128.56 24.12 L 128.56 24.12 Q 128.68 24.46 129.01 24.57 L 129.01 24.57 L 129.01 24.57 Q 129.34 24.68 130.06 24.68 L 130.06 24.68 L 131.52 24.68 L 131.52 24.68 Q 132.52 24.68 133.1 24.36 L 133.1 24.36 L 133.1 24.36 Q 133.68 24.04 133.98 23.33 L 133.98 23.33 L 133.98 23.33 Q 134.28 22.62 134.4 21.34 L 134.4 21.34 L 134.86 21.34 L 134.86 21.34 Q 134.8 21.88 134.8 22.78 L 134.8 22.78 L 134.8 22.78 Z  M 141.14 12.7 L 141.14 12.7 Q 142.02 12.7 142.53 12.89 L 142.53 12.89 L 142.53 12.89 Q 143.04 13.08 143.58 13.44 L 143.58 13.44 L 143.58 13.44 Q 144.02 13.72 144.26 13.72 L 144.26 13.72 L 144.26 13.72 Q 144.44 13.72 144.54 13.51 L 144.54 13.51 L 144.54 13.51 Q 144.64 13.3 144.7 12.84 L 144.7 12.84 L 145.16 12.84 L 145.16 12.84 Q 145.06 13.88 145.06 16.52 L 145.06 16.52 L 144.6 16.52 L 144.6 16.52 Q 144.48 15.08 143.67 14.08 L 143.67 14.08 L 143.67 14.08 Q 142.86 13.08 141.32 13.08 L 141.32 13.08 L 141.32 13.08 Q 140.26 13.08 139.57 13.64 L 139.57 13.64 L 139.57 13.64 Q 138.88 14.2 138.88 15.06 L 138.88 15.06 L 138.88 15.06 Q 138.88 15.68 139.19 16.14 L 139.19 16.14 L 139.19 16.14 Q 139.5 16.6 139.99 16.93 L 139.99 16.93 L 139.99 16.93 Q 140.48 17.26 141.38 17.74 L 141.38 17.74 L 142.04 18.1 L 142.04 18.1 Q 143.28 18.76 144.03 19.28 L 144.03 19.28 L 144.03 19.28 Q 144.78 19.8 145.24 20.47 L 145.24 20.47 L 145.24 20.47 Q 145.7 21.14 145.7 22.02 L 145.7 22.02 L 145.7 22.02 Q 145.7 23.64 144.53 24.53 L 144.53 24.53 L 144.53 24.53 Q 143.36 25.42 141.6 25.42 L 141.6 25.42 L 141.6 25.42 Q 140.64 25.42 140.03 25.22 L 140.03 25.22 L 140.03 25.22 Q 139.42 25.02 138.86 24.68 L 138.86 24.68 L 138.86 24.68 Q 138.42 24.4 138.18 24.4 L 138.18 24.4 L 138.18 24.4 Q 138 24.4 137.9 24.61 L 137.9 24.61 L 137.9 24.61 Q 137.8 24.82 137.74 25.28 L 137.74 25.28 L 137.28 25.28 L 137.28 25.28 Q 137.36 24.3 137.36 20.88 L 137.36 20.88 L 137.82 20.88 L 137.82 20.88 Q 137.96 22.74 138.82 23.88 L 138.82 23.88 L 138.82 23.88 Q 139.68 25.02 141.46 25.02 L 141.46 25.02 L 141.46 25.02 Q 142.46 25.02 143.19 24.45 L 143.19 24.45 L 143.19 24.45 Q 143.92 23.88 143.92 22.76 L 143.92 22.76 L 143.92 22.76 Q 143.92 22.1 143.54 21.59 L 143.54 21.59 L 143.54 21.59 Q 143.16 21.08 142.52 20.68 L 142.52 20.68 L 142.52 20.68 Q 141.88 20.28 140.74 19.68 L 140.74 19.68 L 140.74 19.68 Q 139.1 18.84 138.24 18 L 138.24 18 L 138.24 18 Q 137.38 17.16 137.38 15.82 L 137.38 15.82 L 137.38 15.82 Q 137.38 14.34 138.47 13.52 L 138.47 13.52 L 138.47 13.52 Q 139.56 12.7 141.14 12.7 L 141.14 12.7 L 141.14 12.7 Z  M 19.68 23.52 L 19.68 23.52 Q 20.38 24.4 21.24 24.74 L 21.24 24.74 L 21.24 25.14 L 21.24 25.14 Q 20.28 25.08 19 25.08 L 19 25.08 L 19 25.08 Q 17.64 25.08 16.46 25.14 L 16.46 25.14 L 16.46 24.74 L 16.46 24.74 Q 17.1 24.72 17.38 24.63 L 17.38 24.63 L 17.38 24.63 Q 17.66 24.54 17.66 24.36 L 17.66 24.36 L 17.66 24.36 Q 17.66 24.16 17.4 23.84 L 17.4 23.84 L 14.74 20.14 L 14.74 20.14 Q 14.34 19.58 13.9 19.33 L 13.9 19.33 L 13.9 19.33 Q 13.46 19.08 12.68 19.06 L 12.68 19.06 L 12.68 23.02 L 12.68 23.02 Q 12.68 23.78 12.8 24.12 L 12.8 24.12 L 12.8 24.12 Q 12.92 24.46 13.25 24.58 L 13.25 24.58 L 13.25 24.58 Q 13.58 24.7 14.3 24.74 L 14.3 24.74 L 14.3 25.14 L 14.3 25.14 Q 13.38 25.08 11.76 25.08 L 11.76 25.08 L 11.76 25.08 Q 10.04 25.08 9.2 25.14 L 9.2 25.14 L 9.2 24.74 L 9.2 24.74 Q 9.92 24.7 10.25 24.58 L 10.25 24.58 L 10.25 24.58 Q 10.58 24.46 10.7 24.12 L 10.7 24.12 L 10.7 24.12 Q 10.82 23.78 10.82 23.02 L 10.82 23.02 L 10.82 15.1 L 10.82 15.1 Q 10.82 14.34 10.7 14 L 10.7 14 L 10.7 14 Q 10.58 13.66 10.25 13.54 L 10.25 13.54 L 10.25 13.54 Q 9.92 13.42 9.2 13.38 L 9.2 13.38 L 9.2 12.98 L 9.2 12.98 Q 10.04 13.04 11.76 13.04 L 11.76 13.04 L 11.76 13.04 Q 13.36 13.04 14.3 12.98 L 14.3 12.98 L 14.3 13.38 L 14.3 13.38 Q 13.58 13.42 13.25 13.54 L 13.25 13.54 L 13.25 13.54 Q 12.92 13.66 12.8 14 L 12.8 14 L 12.8 14 Q 12.68 14.34 12.68 15.1 L 12.68 15.1 L 12.68 18.72 L 12.68 18.72 Q 13.38 18.68 14 18.39 L 14 18.39 L 14 18.39 Q 14.62 18.1 15.36 17.38 L 15.36 17.38 L 17.74 14.94 L 17.74 14.94 Q 18.26 14.46 18.26 14.04 L 18.26 14.04 L 18.26 14.04 Q 18.26 13.74 17.96 13.56 L 17.96 13.56 L 17.96 13.56 Q 17.66 13.38 17.08 13.36 L 17.08 13.36 L 17.08 12.98 L 17.08 12.98 Q 18.16 13.04 19.44 13.04 L 19.44 13.04 L 19.44 13.04 Q 20.3 13.04 20.86 12.98 L 20.86 12.98 L 20.86 13.36 L 20.86 13.36 Q 20.14 13.5 19.66 13.78 L 19.66 13.78 L 19.66 13.78 Q 19.18 14.06 18.42 14.8 L 18.42 14.8 L 15.28 17.94 L 19.68 23.52 L 19.68 23.52 Z  M 27.38 12.98 L 27.38 13.38 L 27.38 13.38 Q 26.66 13.42 26.33 13.54 L 26.33 13.54 L 26.33 13.54 Q 26 13.66 25.88 14 L 25.88 14 L 25.88 14 Q 25.76 14.34 25.76 15.1 L 25.76 15.1 L 25.76 23.02 L 25.76 23.02 Q 25.76 23.78 25.88 24.12 L 25.88 24.12 L 25.88 24.12 Q 26 24.46 26.33 24.58 L 26.33 24.58 L 26.33 24.58 Q 26.66 24.7 27.38 24.74 L 27.38 24.74 L 27.38 25.14 L 27.38 25.14 Q 26.46 25.08 24.84 25.08 L 24.84 25.08 L 24.84 25.08 Q 23.12 25.08 22.28 25.14 L 22.28 25.14 L 22.28 24.74 L 22.28 24.74 Q 23 24.7 23.33 24.58 L 23.33 24.58 L 23.33 24.58 Q 23.66 24.46 23.78 24.12 L 23.78 24.12 L 23.78 24.12 Q 23.9 23.78 23.9 23.02 L 23.9 23.02 L 23.9 15.1 L 23.9 15.1 Q 23.9 14.34 23.78 14 L 23.78 14 L 23.78 14 Q 23.66 13.66 23.33 13.54 L 23.33 13.54 L 23.33 13.54 Q 23 13.42 22.28 13.38 L 22.28 13.38 L 22.28 12.98 L 22.28 12.98 Q 23.12 13.04 24.84 13.04 L 24.84 13.04 L 24.84 13.04 Q 26.44 13.04 27.38 12.98 L 27.38 12.98 L 27.38 12.98 Z  M 41.22 12.98 L 41.22 13.38 L 41.22 13.38 Q 40.52 13.42 40.18 13.59 L 40.18 13.59 L 40.18 13.59 Q 39.84 13.76 39.72 14.15 L 39.72 14.15 L 39.72 14.15 Q 39.6 14.54 39.6 15.3 L 39.6 15.3 L 39.6 25.24 L 39.14 25.24 L 31.14 14.16 L 31.14 22.82 L 31.14 22.82 Q 31.14 23.6 31.27 23.98 L 31.27 23.98 L 31.27 23.98 Q 31.4 24.36 31.78 24.53 L 31.78 24.53 L 31.78 24.53 Q 32.16 24.7 32.96 24.74 L 32.96 24.74 L 32.96 25.14 L 32.96 25.14 Q 32.24 25.08 30.92 25.08 L 30.92 25.08 L 30.92 25.08 Q 29.72 25.08 29.06 25.14 L 29.06 25.14 L 29.06 24.74 L 29.06 24.74 Q 29.76 24.7 30.1 24.53 L 30.1 24.53 L 30.1 24.53 Q 30.44 24.36 30.56 23.97 L 30.56 23.97 L 30.56 23.97 Q 30.68 23.58 30.68 22.82 L 30.68 22.82 L 30.68 15.1 L 30.68 15.1 Q 30.68 14.34 30.56 14 L 30.56 14 L 30.56 14 Q 30.44 13.66 30.11 13.54 L 30.11 13.54 L 30.11 13.54 Q 29.78 13.42 29.06 13.38 L 29.06 13.38 L 29.06 12.98 L 29.06 12.98 Q 29.72 13.04 30.92 13.04 L 30.92 13.04 L 30.92 13.04 Q 32 13.04 32.76 12.98 L 32.76 12.98 L 39.14 21.86 L 39.14 15.3 L 39.14 15.3 Q 39.14 14.52 39.01 14.14 L 39.01 14.14 L 39.01 14.14 Q 38.88 13.76 38.5 13.59 L 38.5 13.59 L 38.5 13.59 Q 38.12 13.42 37.32 13.38 L 37.32 13.38 L 37.32 12.98 L 37.32 12.98 Q 38.04 13.04 39.36 13.04 L 39.36 13.04 L 39.36 13.04 Q 40.56 13.04 41.22 12.98 L 41.22 12.98 L 41.22 12.98 Z  M 48.1 12.98 L 48.1 12.98 Q 51.22 12.98 52.79 14.49 L 52.79 14.49 L 52.79 14.49 Q 54.36 16 54.36 18.9 L 54.36 18.9 L 54.36 18.9 Q 54.36 20.78 53.6 22.19 L 53.6 22.19 L 53.6 22.19 Q 52.84 23.6 51.39 24.37 L 51.39 24.37 L 51.39 24.37 Q 49.94 25.14 47.92 25.14 L 47.92 25.14 L 46.76 25.12 L 46.76 25.12 Q 45.64 25.08 45.12 25.08 L 45.12 25.08 L 45.12 25.08 Q 43.48 25.08 42.64 25.14 L 42.64 25.14 L 42.64 24.74 L 42.64 24.74 Q 43.36 24.7 43.69 24.58 L 43.69 24.58 L 43.69 24.58 Q 44.02 24.46 44.14 24.12 L 44.14 24.12 L 44.14 24.12 Q 44.26 23.78 44.26 23.02 L 44.26 23.02 L 44.26 15.1 L 44.26 15.1 Q 44.26 14.34 44.14 14 L 44.14 14 L 44.14 14 Q 44.02 13.66 43.69 13.54 L 43.69 13.54 L 43.69 13.54 Q 43.36 13.42 42.64 13.38 L 42.64 13.38 L 42.64 12.98 L 42.64 12.98 Q 43.34 13.04 44.58 13.04 L 44.58 13.04 L 46.28 13.02 L 46.28 13.02 Q 47.64 12.98 48.1 12.98 L 48.1 12.98 L 48.1 12.98 Z  M 47.6 13.34 L 47.6 13.34 Q 46.98 13.34 46.67 13.48 L 46.67 13.48 L 46.67 13.48 Q 46.36 13.62 46.24 13.98 L 46.24 13.98 L 46.24 13.98 Q 46.12 14.34 46.12 15.06 L 46.12 15.06 L 46.12 23.06 L 46.12 23.06 Q 46.12 23.78 46.24 24.14 L 46.24 24.14 L 46.24 24.14 Q 46.36 24.5 46.67 24.64 L 46.67 24.64 L 46.67 24.64 Q 46.98 24.78 47.62 24.78 L 47.62 24.78 L 47.62 24.78 Q 49.44 24.78 50.48 24.13 L 50.48 24.13 L 50.48 24.13 Q 51.52 23.48 51.94 22.22 L 51.94 22.22 L 51.94 22.22 Q 52.36 20.96 52.36 18.98 L 52.36 18.98 L 52.36 18.98 Q 52.36 16.06 51.28 14.7 L 51.28 14.7 L 51.28 14.7 Q 50.2 13.34 47.6 13.34 L 47.6 13.34 L 47.6 13.34 Z  M 61.22 12.98 L 61.22 13.38 L 61.22 13.38 Q 60.5 13.42 60.17 13.54 L 60.17 13.54 L 60.17 13.54 Q 59.84 13.66 59.72 14 L 59.72 14 L 59.72 14 Q 59.6 14.34 59.6 15.1 L 59.6 15.1 L 59.6 23.02 L 59.6 23.02 Q 59.6 23.78 59.72 24.12 L 59.72 24.12 L 59.72 24.12 Q 59.84 24.46 60.17 24.57 L 60.17 24.57 L 60.17 24.57 Q 60.5 24.68 61.22 24.68 L 61.22 24.68 L 62.48 24.68 L 62.48 24.68 Q 63.86 24.68 64.63 23.86 L 64.63 23.86 L 64.63 23.86 Q 65.4 23.04 65.56 21.14 L 65.56 21.14 L 66.02 21.14 L 66.02 21.14 Q 65.96 21.76 65.96 22.78 L 65.96 22.78 L 65.96 22.78 Q 65.96 23.82 66.1 25.14 L 66.1 25.14 L 66.1 25.14 Q 64.8 25.08 61.72 25.08 L 61.72 25.08 L 61.72 25.08 Q 58.02 25.08 56.12 25.14 L 56.12 25.14 L 56.12 24.74 L 56.12 24.74 Q 56.84 24.7 57.17 24.58 L 57.17 24.58 L 57.17 24.58 Q 57.5 24.46 57.62 24.12 L 57.62 24.12 L 57.62 24.12 Q 57.74 23.78 57.74 23.02 L 57.74 23.02 L 57.74 15.1 L 57.74 15.1 Q 57.74 14.34 57.62 14 L 57.62 14 L 57.62 14 Q 57.5 13.66 57.17 13.54 L 57.17 13.54 L 57.17 13.54 Q 56.84 13.42 56.12 13.38 L 56.12 13.38 L 56.12 12.98 L 56.12 12.98 Q 56.96 13.04 58.68 13.04 L 58.68 13.04 L 58.68 13.04 Q 60.28 13.04 61.22 12.98 L 61.22 12.98 L 61.22 12.98 Z  M 77.42 22.78 L 77.42 22.78 Q 77.42 23.82 77.56 25.14 L 77.56 25.14 L 77.56 25.14 Q 76.26 25.08 73.18 25.08 L 73.18 25.08 L 73.18 25.08 Q 69.48 25.08 67.58 25.14 L 67.58 25.14 L 67.58 24.74 L 67.58 24.74 Q 68.3 24.7 68.63 24.58 L 68.63 24.58 L 68.63 24.58 Q 68.96 24.46 69.08 24.12 L 69.08 24.12 L 69.08 24.12 Q 69.2 23.78 69.2 23.02 L 69.2 23.02 L 69.2 15.1 L 69.2 15.1 Q 69.2 14.34 69.08 14 L 69.08 14 L 69.08 14 Q 68.96 13.66 68.63 13.54 L 68.63 13.54 L 68.63 13.54 Q 68.3 13.42 67.58 13.38 L 67.58 13.38 L 67.58 12.98 L 67.58 12.98 Q 69.48 13.04 73.18 13.04 L 73.18 13.04 L 73.18 13.04 Q 75.98 13.04 77.16 12.98 L 77.16 12.98 L 77.16 12.98 Q 77.02 14.18 77.02 15.14 L 77.02 15.14 L 77.02 15.14 Q 77.02 15.92 77.08 16.38 L 77.08 16.38 L 76.62 16.38 L 76.62 16.38 Q 76.48 14.74 75.93 14.09 L 75.93 14.09 L 75.93 14.09 Q 75.38 13.44 74.14 13.44 L 74.14 13.44 L 72.68 13.44 L 72.68 13.44 Q 71.96 13.44 71.63 13.55 L 71.63 13.55 L 71.63 13.55 Q 71.3 13.66 71.18 14 L 71.18 14 L 71.18 14 Q 71.06 14.34 71.06 15.1 L 71.06 15.1 L 71.06 18.82 L 72.72 18.82 L 72.72 18.82 Q 73.36 18.82 73.7 18.49 L 73.7 18.49 L 73.7 18.49 Q 74.04 18.16 74.16 17.77 L 74.16 17.77 L 74.16 17.77 Q 74.28 17.38 74.38 16.78 L 74.38 16.78 L 74.84 16.78 L 74.84 16.78 Q 74.78 17.46 74.78 18.26 L 74.78 18.26 L 74.78 19.02 L 74.78 19.02 Q 74.78 19.8 74.9 21.26 L 74.9 21.26 L 74.44 21.26 L 74.44 21.26 Q 74.32 20.3 73.98 19.76 L 73.98 19.76 L 73.98 19.76 Q 73.64 19.22 72.72 19.22 L 72.72 19.22 L 71.06 19.22 L 71.06 23.02 L 71.06 23.02 Q 71.06 23.78 71.18 24.12 L 71.18 24.12 L 71.18 24.12 Q 71.3 24.46 71.63 24.57 L 71.63 24.57 L 71.63 24.57 Q 71.96 24.68 72.68 24.68 L 72.68 24.68 L 74.14 24.68 L 74.14 24.68 Q 75.14 24.68 75.72 24.36 L 75.72 24.36 L 75.72 24.36 Q 76.3 24.04 76.6 23.33 L 76.6 23.33 L 76.6 23.33 Q 76.9 22.62 77.02 21.34 L 77.02 21.34 L 77.48 21.34 L 77.48 21.34 Q 77.42 21.88 77.42 22.78 L 77.42 22.78 L 77.42 22.78 Z " fill="rgb(255,255,255)"/></g></svg>