<?xml version="1.0" standalone="no"?><!-- Generator: Gravit.io --><svg xmlns="http://www.w3.org/2000/svg" xmlns:xlink="http://www.w3.org/1999/xlink" style="isolation:isolate" viewBox="0 0 308 42" width="308" height="42"><defs><clipPath id="_clipPath_eHWTs9hGew6YQbla1AZuKCIBr72bu6ry"><rect width="308" height="42"/></clipPath></defs><g clip-path="url(#_clipPath_eHWTs9hGew6YQbla1AZuKCIBr72bu6ry)"><rect x="0" y="0" width="308" height="67" transform="matrix(1,0,0,1,0,0)" fill="none"/><path d=" M 35.5 26.193 L 30.5 26.193 L 30.5 23.693 L 28 23.693 L 28 21.193 L 25.5 21.193 L 25.5 13.693 L 30.5 13.693 L 30.5 21.193 L 35.5 21.193 L 35.5 13.693 L 40.5 13.693 L 40.5 21.193 L 38 21.193 L 38 23.693 L 35.5 23.693 L 35.5 26.193 L 35.5 26.193 Z  M 60.5 26.193 L 45.5 26.193 L 45.5 23.693 L 43 23.693 L 43 13.693 L 48 13.693 L 48 23.693 L 55.5 23.693 L 55.5 13.693 L 60.5 13.693 L 60.5 26.193 L 60.5 26.193 Z  M 78 26.193 L 65.5 26.193 L 65.5 23.693 L 63 23.693 L 63 16.193 L 65.5 16.193 L 65.5 13.693 L 78 13.693 L 78 16.193 L 80.5 16.193 L 80.5 21.193 L 68 21.193 L 68 23.693 L 78 23.693 L 78 26.193 L 78 26.193 Z  M 68 16.193 L 68 18.693 L 75.5 18.693 L 75.5 16.193 L 68 16.193 L 68 16.193 Z  M 100.5 18.693 L 85.5 18.693 L 85.5 16.193 L 100.5 16.193 L 100.5 18.693 L 100.5 18.693 Z  M 108 26.193 L 103 26.193 L 103 13.693 L 118 13.693 L 118 16.193 L 120.5 16.193 L 120.5 26.193 L 115.5 26.193 L 115.5 16.193 L 108 16.193 L 108 26.193 L 108 26.193 Z  M 138 26.193 L 125.5 26.193 L 125.5 23.693 L 123 23.693 L 123 16.193 L 125.5 16.193 L 125.5 13.693 L 138 13.693 L 138 16.193 L 140.5 16.193 L 140.5 21.193 L 128 21.193 L 128 23.693 L 138 23.693 L 138 26.193 L 138 26.193 Z  M 128 16.193 L 128 18.693 L 135.5 18.693 L 135.5 16.193 L 128 16.193 L 128 16.193 Z  M 158 26.193 L 143 26.193 L 143 23.693 L 155.5 23.693 L 155.5 21.193 L 145.5 21.193 L 145.5 18.693 L 143 18.693 L 143 16.193 L 145.5 16.193 L 145.5 13.693 L 158 13.693 L 158 16.193 L 148 16.193 L 148 18.693 L 158 18.693 L 158 21.193 L 160.5 21.193 L 160.5 23.693 L 158 23.693 L 158 26.193 L 158 26.193 Z  M 180.5 18.693 L 165.5 18.693 L 165.5 16.193 L 180.5 16.193 L 180.5 18.693 L 180.5 18.693 Z  M 200.5 26.193 L 185.5 26.193 L 185.5 23.693 L 190.5 23.693 L 190.5 11.193 L 188 11.193 L 188 8.693 L 195.5 8.693 L 195.5 23.693 L 200.5 23.693 L 200.5 26.193 L 200.5 26.193 Z  M 218 26.193 L 205.5 26.193 L 205.5 23.693 L 203 23.693 L 203 16.193 L 205.5 16.193 L 205.5 13.693 L 218 13.693 L 218 16.193 L 220.5 16.193 L 220.5 23.693 L 218 23.693 L 218 26.193 L 218 26.193 Z  M 208 16.193 L 208 23.693 L 215.5 23.693 L 215.5 16.193 L 208 16.193 L 208 16.193 Z  M 238 28.693 L 225.5 28.693 L 225.5 26.193 L 235.5 26.193 L 235.5 23.693 L 225.5 23.693 L 225.5 21.193 L 223 21.193 L 223 16.193 L 225.5 16.193 L 225.5 13.693 L 240.5 13.693 L 240.5 26.193 L 238 26.193 L 238 28.693 L 238 28.693 Z  M 228 16.193 L 228 21.193 L 235.5 21.193 L 235.5 16.193 L 228 16.193 L 228 16.193 Z  M 255.5 11.193 L 250.5 11.193 L 250.5 8.693 L 255.5 8.693 L 255.5 11.193 L 255.5 11.193 Z  M 260.5 26.193 L 245.5 26.193 L 245.5 23.693 L 250.5 23.693 L 250.5 16.193 L 248 16.193 L 248 13.693 L 255.5 13.693 L 255.5 23.693 L 260.5 23.693 L 260.5 26.193 L 260.5 26.193 Z  M 268 26.193 L 263 26.193 L 263 13.693 L 278 13.693 L 278 16.193 L 280.5 16.193 L 280.5 26.193 L 275.5 26.193 L 275.5 16.193 L 268 16.193 L 268 26.193 L 268 26.193 Z " fill="rgb(255,255,255)"/></g></svg>